<?xml version="1.0" encoding="utf-8"?>
<!-- Generator: Adobe Illustrator 15.1.0, SVG Export Plug-In . SVG Version: 6.00 Build 0)  -->
<!DOCTYPE svg PUBLIC "-//W3C//DTD SVG 1.1//EN" "http://www.w3.org/Graphics/SVG/1.1/DTD/svg11.dtd">
<svg version="1.1" id="Layer_1" xmlns="http://www.w3.org/2000/svg" xmlns:xlink="http://www.w3.org/1999/xlink" x="0px" y="0px"
	 viewBox="0 319.338 595.278 203.214" enable-background="new 0 319.338 595.278 203.214"
	 xml:space="preserve">
<g>
	<path d="M578.857,449.13c-0.443,0.665-1.055,1.275-1.773,1.828c-0.775,0.556-1.607,1.054-2.549,1.44
		c-0.941,0.444-1.885,0.776-2.936,0.997c-1.055,0.224-2.051,0.333-2.992,0.333c1.273-1.385,2.604-2.659,3.986-3.934
		c1.387-1.274,2.771-2.326,4.156-3.103c0.553-0.33,1.053-0.444,1.441-0.497c0.441,0,0.773,0.108,0.996,0.331
		c0.221,0.277,0.334,0.609,0.277,1.052C579.41,448.021,579.244,448.52,578.857,449.13 M587.779,451.734
		c0.166-0.277,0.221-0.444,0.111-0.497c-0.168-0.057-0.336,0-0.502,0.276c-0.439,0.387-1.051,0.83-1.828,1.22
		c-0.83,0.389-1.605,0.607-2.383,0.719c-0.607,0.056-1.273,0.11-2.105,0.167c-0.83,0.057-1.773,0.057-2.713,0.109h-3.049h-3.047
		c1.828-0.276,3.492-0.776,4.93-1.496c1.441-0.719,2.439-1.606,2.994-2.604c0.332-0.554,0.498-1.163,0.387-1.828
		c0-0.665-0.219-1.274-0.5-1.773c-0.332-0.555-0.777-0.942-1.33-1.22c-0.553-0.275-1.219-0.387-1.885-0.107
		c-1.326,0.496-2.713,1.382-4.318,2.657c-1.609,1.274-3.16,2.824-4.602,4.543c-1.496,1.775-2.713,3.659-3.711,5.708
		c-1.055,2.051-1.609,4.043-1.719,6.094c-0.055,0.72,0.111,1.441,0.498,2.049c0.389,0.667,0.832,1.223,1.387,1.719
		c0.553,0.499,1.164,0.831,1.828,1.052c0.666,0.275,1.275,0.334,1.828,0.223c0.666-0.111,1.33-0.275,2.053-0.555
		c0.719-0.274,1.441-0.608,2.104-0.94c0.666-0.333,1.277-0.667,1.83-0.999c0.553-0.387,1.053-0.72,1.439-0.997
		c0.277-0.221,0.389-0.33,0.223-0.442c-0.166-0.166-0.389-0.111-0.668,0.056c-0.994,0.553-2.16,1.108-3.545,1.606
		c-1.383,0.501-2.715,0.888-3.934,1.054c-0.5,0.055-0.943,0-1.383-0.057c-0.502-0.109-0.889-0.277-1.221-0.554
		c-0.387-0.277-0.664-0.721-0.828-1.22c-0.221-0.498-0.334-1.161-0.277-1.994c0.057-0.887,0.223-1.718,0.498-2.549
		s0.666-1.66,1.057-2.438c0.387-0.776,0.828-1.496,1.273-2.161c0.498-0.721,0.941-1.331,1.33-1.884h3.879
		c1.494,0,2.936,0,4.432-0.054c1.496-0.058,2.824-0.058,4.049-0.113c1.271-0.055,2.215-0.111,2.822-0.221
		c1.055-0.166,1.938-0.498,2.77-1.054C586.779,452.62,587.388,452.121,587.779,451.734 M548.214,468.189
		c0.445,0.057,0.777,0,1.055-0.055c0.223-0.055,0.389-0.166,0.498-0.22c0.113-0.058,0.166-0.113,0.166-0.113
		c0.721,0,1.498-0.441,2.385-1.22c1.828-1.604,4.154-3.988,6.871-7.202c1.164-1.382,2.217-2.658,3.104-3.82
		c0.887-1.167,1.662-2.219,2.271-3.161c0.332-0.387,0.555-0.553,0.668-0.443c0.166,0.166,0.439,0.332,0.719,0.443
		c0.275,0.167,0.664,0.278,1.053,0.388c0.5,0.111,0.775,0,0.775-0.388c0-0.111-0.055-0.219-0.166-0.277
		c-0.443-0.33-0.668-0.72-0.721-1.163c-0.055-0.72,0.443-1.828,1.496-3.323c0.053-0.057,0-0.111-0.055-0.276
		c-0.111-0.166-0.223-0.277-0.389-0.387c-0.166-0.166-0.332-0.277-0.498-0.332c-0.166-0.111-0.334-0.166-0.389-0.111
		c-0.277,0.166-0.555,0.332-0.943,0.609c-0.385,0.276-0.828,0.608-1.328,0.997c-0.277,0.72-0.443,1.274-0.498,1.773
		c-0.113,0.498-0.223,0.831-0.334,0.997c-0.887,1.276-1.828,2.549-2.715,3.822c-0.941,1.274-1.883,2.549-2.824,3.825
		c-1.385,1.883-2.66,3.488-3.713,4.763c-1.055,1.274-1.996,2.271-2.77,2.882c-0.557,0.443-0.996,0.664-1.387,0.664
		c-0.553,0-0.83-0.387-0.83-1.218c0-0.332,0.055-0.72,0.168-1.163c0.828-2.937,3.16-6.927,6.26-12.412
		c0.055-0.055,0.055-0.111,0.109-0.221c0.057,0,0.057-0.111,0.057-0.166c0-0.499-0.275-0.722-0.887-0.722
		c-0.277,0-0.443,0.057-0.555,0.223c-4.602,6.314-7.313,11.524-8.256,15.624c-0.111,0.278,0,0.61,0.387,0.886
		C547.384,467.969,547.773,468.135,548.214,468.189 M546.111,444.475c0.111-0.333,0-0.665-0.334-0.942
		c-0.387-0.332-0.773-0.442-1.16-0.388c-0.502,0.112-1.166,0.612-2.051,1.496c-0.832,0.831-1.277,1.554-1.277,2.051
		c0,0.498,0.389,0.776,1.221,0.942c0.553,0.109,1.217-0.223,2.049-0.997C545.447,445.806,546,445.085,546.111,444.475
		 M549.601,461.596c0.223-0.166,0.389-0.389,0.5-0.607c0.111-0.223,0.166-0.388,0.111-0.501c0-0.111-0.055-0.166-0.221-0.111
		c-0.166,0.057-0.389,0.225-0.721,0.556c-0.5,0.498-1.273,1.052-2.215,1.772c-0.943,0.722-1.998,1.385-3.105,2.105
		c-1.107,0.72-2.162,1.33-3.213,1.883c-1.055,0.556-1.938,0.888-2.66,1.054c-0.387,0.055-0.721,0.11-1.107,0.168
		c-0.389,0-0.721-0.113-0.998-0.334c-0.275-0.221-0.389-0.555-0.332-1.054c0-0.496,0.221-1.218,0.664-2.16
		c0.445-0.94,0.723-1.552,0.834-1.828c0.166-0.277,0.219-0.5,0.275-0.607c0.057-0.113,0.057-0.225,0.166-0.335
		c0-0.166,0.223-0.498,0.5-1.108c0.275-0.609,0.775-1.495,1.443-2.77c0.719-1.275,1.717-3.101,2.934-5.486
		c0.334-0.664,0.445-1.218,0.279-1.606c-0.168-0.388-0.389-0.665-0.721-0.776c-0.334-0.107-0.666-0.055-1.055,0.057
		c-0.387,0.166-0.611,0.498-0.666,0.94c-0.055,0.168-0.221,0.555-0.5,1.165c-0.275,0.665-0.664,1.44-1.107,2.326
		c-0.443,0.942-0.943,1.939-1.441,2.991c-0.498,1.108-0.998,2.164-1.441,3.214c-0.441,1.054-0.83,2.051-1.105,2.993
		c-0.277,0.942-0.443,1.717-0.443,2.327c0,0.664,0.166,1.22,0.498,1.663c0.387,0.497,0.775,0.829,1.219,1.106
		c0.5,0.277,0.943,0.499,1.385,0.556c0.5,0.055,0.83,0.055,1.055,0c0.83-0.39,1.77-0.888,2.879-1.553
		c1.109-0.662,2.219-1.386,3.27-2.105c1.107-0.776,2.105-1.495,2.992-2.217C548.494,462.594,549.158,462.039,549.601,461.596
		 M586.835,421.261c-3.045,6.203-10.859,12.078-23.436,17.562c-5.266,2.329-10.916,4.378-16.898,6.207
		c-5.984,1.828-12.359,3.436-19.115,4.819c0.111-0.166,0.219-0.387,0.275-0.554c0.055-0.166,0.166-0.387,0.221-0.553h-0.055
		c2.049-4.71,4.211-9.198,6.594-13.464s4.986-8.367,7.756-12.246c9.252-12.966,18.285-19.669,27.205-20.059
		c5.262-0.221,9.75,1.331,13.465,4.377c3.656,3.05,5.316,6.431,4.93,10.363c-0.055,0.608-0.168,1.219-0.334,1.771
		C587.277,420.096,587.113,420.708,586.835,421.261 M522.562,462.484c0.055,1.717,0.387,3.046,1.107,3.877
		c0.723,0.888,1.609,1.386,2.66,1.554c1.055,0.165,2.271-0.058,3.602-0.611s2.66-1.386,3.934-2.55
		c0.389-0.387,0.832-0.773,1.275-1.274c0.5-0.498,0.885-0.886,1.164-1.274c0.277-0.387,0.387-0.663,0.277-0.663
		c-0.168-0.111-0.391,0.055-0.67,0.331c-0.387,0.443-0.773,0.888-1.162,1.22c-0.387,0.387-0.83,0.776-1.33,1.163
		c-0.885,0.667-1.828,1.222-2.824,1.607c-1.055,0.443-1.996,0.609-2.826,0.498c-0.887-0.111-1.607-0.554-2.162-1.329
		c-0.609-0.776-0.828-2.051-0.775-3.768c0.055-1.497,0.277-3.214,0.666-5.099c0.443-1.938,0.996-3.768,1.607-5.483
		c5.598-1.054,11.137-2.384,16.512-3.879c5.43-1.497,10.748-3.325,16.068-5.319c15.346-5.818,24.824-12.023,28.313-18.727
		c0.664-1.275,1.107-2.661,1.219-4.101c0.443-4.434-1.551-8.367-5.65-11.858c-4.1-3.49-8.809-5.153-14.184-4.819
		c-15.682,0.942-30.309,17.009-43.994,47.981v0.168c-0.941,2.158-1.664,4.264-2.162,6.314
		C522.73,458.551,522.509,460.543,522.562,462.484 M485.111,466.804c2.162-5.098,5.209-9.476,9.141-13.129
		c0.557-0.39,0.889-0.554,0.943-0.501c0.666-0.277,1.383-0.441,2.162-0.498c0.775-0.111,1.605-0.111,2.494,0
		c1.662,0.166,2.324,0.831,2.104,1.941c-0.555,2.711-2.715,5.649-6.373,8.975c-3.547,3.212-6.537,4.985-9.029,5.43
		c-1.162,0.221-1.773-0.112-1.773-0.999C484.777,467.635,484.886,467.192,485.111,466.804 M485.886,469.741
		c3.27-0.498,7.037-2.604,11.359-6.314c2.217-1.885,3.875-3.603,4.93-5.21c1.107-1.606,1.719-3.159,1.828-4.541
		c0-0.057,0-0.168-0.053-0.28c-0.055-0.109-0.055-0.221-0.113-0.332c-0.053-0.111-0.053-0.221,0-0.33
		c0.334-0.446,1.055-0.667,2.217-0.667c0.555,0,0.83-0.111,0.83-0.332c0-0.055-0.275-0.166-0.83-0.221
		c-1.551-0.057-2.938-0.057-4.1-0.112c-1.221-0.055-2.27-0.055-3.105-0.111c-0.055-0.053-0.109-0.053-0.221-0.109
		c0-0.057-0.111-0.057-0.166-0.111c-1.107-0.609-1.885-1.054-2.492-0.997c-0.83,0.057-1.607,0.442-2.438,1.22
		c-0.277,0.167-0.443,0.224-0.609,0.224c-0.055,0-0.719,0-2.105,0.055c-0.83,0.057-1.328,0.166-1.439,0.332
		c-0.113,0.166-0.168,0.332-0.168,0.443c0,0.222,0.168,0.442,0.5,0.665c0.332,0.277,0.664,0.498,0.994,0.667
		c0.223,0.053,0.277,0.219,0.113,0.496c-4.875,5.984-7.367,10.527-7.424,13.575c0,0.276,0.055,0.554,0.221,0.831
		s0.387,0.499,0.607,0.665c0.277,0.168,0.555,0.332,0.832,0.387C485.332,469.741,485.609,469.796,485.886,469.741 M478.794,499.605
		c2.492,0,5.096-0.719,7.867-2.217c2.826-1.495,5.816-3.655,9.029-6.537c6.318-5.705,9.865-11.026,10.584-15.902
		c0.111-0.83-0.441-2.105-1.551-3.767c-1.055-1.607-2.219-2.384-3.381-2.384c-0.277,0-0.5,0-0.666,0.057
		c-0.941,0.388-1.607,0.72-1.938,0.94c-0.387,0.224-0.666,0.499-0.83,0.776c-0.055,0.334,0.055,0.499,0.443,0.499
		c0.166,0,0.498-0.111,0.885-0.388c0.391-0.277,0.889-0.389,1.441-0.498c2.492-0.39,3.713,1.11,3.713,4.598
		c-0.277,1.994-1.109,4.1-2.383,6.316c-1.33,2.217-3.215,4.601-5.652,7.147c-2.381,2.55-4.709,4.599-6.979,6.205
		c-2.273,1.607-4.602,2.771-6.926,3.492c-1.609,0.5-3.047,0.719-4.322,0.719c-4.543,0-6.814-3.212-6.814-9.64v-1.329
		c0-0.39,0-0.833,0.055-1.332c0.275-3.435,1.164-7.313,2.658-11.579c1.498-4.322,3.436-9.142,6.039-14.406
		c1.609-3.321,3.381-6.426,5.098-9.253c1.715-2.825,3.604-5.706,5.541-8.588c0.334-0.442,0.775-0.774,1.385-0.886
		c3.492-0.166,6.537-0.33,9.252-0.498c2.717-0.167,5.154-0.278,7.26-0.39c0.332,0,0.609-0.221,0.775-0.498
		c0.221-0.333,0.332-0.554,0.332-0.608c-0.111-0.111-0.332-0.166-0.664-0.166c-0.277,0-1.055,0-2.219-0.055h-5.096h-8.035
		c-0.83,0-0.996-0.446-0.385-1.276c7.977-11.026,13.736-16.845,17.23-17.564c0.385-0.111,0.553-0.221,0.553-0.387
		c0-0.332-0.221-0.499-0.609-0.499c-0.441,0-0.832,0.057-1.221,0.222c-0.387,0.166-1.053,0.387-1.938,0.719
		c-1.83,0.665-2.881,1.165-3.104,1.441c-2.551,2.937-4.988,5.818-7.314,8.535c-2.326,2.769-4.375,5.539-6.15,8.309
		c-0.055,0.111-0.055,0.222,0.055,0.333s0.111,0.168-0.055,0.168c-1.771,0-3.158,0.055-4.1,0.164
		c-0.998,0.111-1.551,0.277-1.662,0.499c-0.277,0.609,0.223,1.222,1.551,1.718c0.666,0.388,0.996,0.886,0.996,1.553
		c0,0.607-0.219,1.163-0.666,1.661c-1.883,2.714-3.766,5.816-5.65,9.253c-1.883,3.436-3.768,7.313-5.652,11.58
		c-4.266,9.696-6.371,17.176-6.371,22.384c0,1.607,0.113,3.048,0.387,4.38c0.277,1.384,0.889,2.547,1.885,3.655
		C473.419,498.497,475.857,499.605,478.794,499.605 M449.152,449.13c-0.441,0.665-1.053,1.275-1.771,1.828
		c-0.775,0.556-1.609,1.054-2.551,1.44c-0.941,0.444-1.885,0.776-2.936,0.997c-1.055,0.224-2.051,0.333-2.994,0.333
		c1.275-1.385,2.605-2.659,3.99-3.934s2.77-2.326,4.156-3.103c0.553-0.33,1.053-0.444,1.441-0.497c0.441,0,0.773,0.108,0.996,0.331
		c0.219,0.277,0.332,0.609,0.275,1.052C449.703,448.021,449.539,448.52,449.152,449.13 M458.072,451.734
		c0.168-0.277,0.223-0.444,0.111-0.497c-0.168-0.057-0.336,0-0.5,0.276c-0.441,0.387-1.053,0.83-1.828,1.22
		c-0.83,0.389-1.607,0.607-2.385,0.719c-0.605,0.056-1.273,0.11-2.104,0.167s-1.773,0.057-2.715,0.109h-3.049h-3.047
		c1.83-0.276,3.494-0.776,4.93-1.496c1.443-0.719,2.439-1.606,2.994-2.604c0.332-0.554,0.5-1.163,0.387-1.828
		c0-0.665-0.221-1.274-0.498-1.773c-0.332-0.555-0.777-0.942-1.33-1.22c-0.553-0.275-1.219-0.387-1.885-0.107
		c-1.328,0.496-2.715,1.382-4.32,2.657c-1.607,1.274-3.158,2.824-4.6,4.543c-1.496,1.775-2.715,3.659-3.715,5.708
		c-1.051,2.051-1.605,4.043-1.715,6.094c-0.057,0.72,0.111,1.441,0.498,2.049c0.387,0.667,0.832,1.223,1.387,1.719
		c0.553,0.499,1.162,0.831,1.828,1.052c0.664,0.275,1.275,0.334,1.828,0.223c0.664-0.111,1.33-0.275,2.051-0.555
		c0.719-0.274,1.441-0.608,2.107-0.94c0.662-0.333,1.273-0.667,1.826-0.999c0.553-0.387,1.051-0.72,1.439-0.997
		c0.279-0.221,0.389-0.33,0.223-0.442c-0.166-0.166-0.389-0.111-0.666,0.056c-0.996,0.553-2.162,1.108-3.545,1.606
		c-1.385,0.501-2.717,0.888-3.934,1.054c-0.502,0.055-0.943,0-1.387-0.057c-0.498-0.109-0.885-0.277-1.219-0.554
		c-0.387-0.277-0.666-0.721-0.83-1.22c-0.223-0.498-0.332-1.161-0.275-1.994c0.053-0.887,0.219-1.718,0.498-2.549
		c0.275-0.831,0.664-1.66,1.055-2.438c0.387-0.776,0.83-1.496,1.273-2.161c0.5-0.721,0.941-1.331,1.33-1.884h3.881
		c1.494,0,2.936,0,4.432-0.054c1.496-0.058,2.824-0.058,4.045-0.113c1.275-0.055,2.219-0.111,2.824-0.221
		c1.057-0.166,1.938-0.498,2.771-1.054C457.076,452.62,457.683,452.121,458.072,451.734 M430.535,453.452
		c0,0.056,0,0.056-0.057,0.056v0.055C430.535,453.508,430.535,453.508,430.535,453.452 M436.681,449.742
		c0.611-0.724,0.889-1.388,0.889-2.051c0-0.667-0.166-1.22-0.553-1.664c-0.389-0.443-0.941-0.774-1.553-0.942
		c-0.664-0.166-1.326-0.166-2.051,0.055c-0.885,0.278-1.826,0.776-2.877,1.387c-1.055,0.664-2.051,1.44-3.105,2.383
		c-1.055,0.94-2.049,1.994-2.992,3.157c-0.994,1.163-1.885,2.438-2.658,3.713c-0.775,1.276-1.441,2.604-1.883,3.988
		c-0.5,1.386-0.832,2.717-0.891,4.045c-0.055,0.723,0.113,1.44,0.504,2.105c0.387,0.664,0.828,1.22,1.381,1.663
		c0.611,0.499,1.221,0.831,1.828,1.052c0.668,0.277,1.277,0.333,1.832,0.223c0.719-0.111,1.383-0.277,2.104-0.555
		c0.723-0.277,1.385-0.61,2.049-0.94c0.666-0.334,1.277-0.667,1.832-0.999c0.553-0.387,1.053-0.72,1.439-0.997
		c0.277-0.221,0.389-0.332,0.277-0.441c-0.168-0.169-0.387-0.112-0.666,0.055c-1.053,0.607-2.217,1.163-3.602,1.661
		c-1.385,0.499-2.715,0.888-3.934,0.997c-0.5,0.055-0.943,0-1.385-0.055c-0.5-0.111-0.887-0.277-1.219-0.555
		c-0.391-0.276-0.668-0.72-0.832-1.22c-0.221-0.499-0.334-1.164-0.275-1.996c0.111-1.773,0.666-3.436,1.549-4.985
		c0.889-1.553,1.773-2.882,2.605-4.045l0.664-0.888c1.109-1.496,2.553-2.714,3.936-3.988c1.385-1.274,2.773-2.328,4.154-3.103
		c0.557-0.332,1.057-0.441,1.443-0.5c0.441,0,0.773,0.111,0.996,0.334c0.223,0.275,0.332,0.608,0.277,1.054
		c-0.055,0.441-0.221,0.995-0.611,1.55c-0.441,0.665-1.162,1.33-2.105,2.161c-0.941,0.83-1.883,1.55-2.713,2.16
		c1.496-0.333,2.713-0.829,3.709-1.551C435.244,451.29,436.076,450.514,436.681,449.742 M401.943,463.37
		c0.5-1.165,1.221-2.438,2.051-3.711c0.889-1.276,1.939-2.662,3.215-4.046c2.658-2.937,4.875-4.599,6.592-5.042
		c0.443-0.111,0.887-0.166,1.275-0.166c0.721,0,1.328,0.166,1.826,0.498c0.502,0.387,0.725,0.776,0.725,1.163
		c0,0.166-0.057,0.277-0.166,0.388c-2.607,3.159-5.1,5.817-7.373,7.979c-2.27,2.215-4.484,3.988-6.535,5.263
		c-0.277,0.167-0.553,0.278-0.83,0.278c-0.666,0-0.998-0.444-0.998-1.33C401.72,464.201,401.777,463.758,401.943,463.37
		 M401.058,468.08c2.326-1.387,5.152-3.381,8.365-6.148c1.666-1.389,3.047-2.718,4.27-3.881c1.271-1.163,2.324-2.326,3.209-3.38
		c0.057-0.053,0.113-0.111,0.17-0.111c0.275,0,0.332,0.223,0.055,0.611c-0.609,0.942-1.221,1.992-1.83,3.157
		s-1.275,2.382-1.883,3.711c-0.498,1.108-1.055,2.383-1.553,3.824c-0.498,1.44-0.994,2.881-1.441,4.322
		c-0.441,1.495-0.83,2.88-1.051,4.154c-0.277,1.274-0.443,2.328-0.5,3.103c-0.053,0.942,0.055,1.83,0.334,2.549
		c0.275,0.776,0.828,1.33,1.494,1.775c0.609,0.387,1.275,0.718,1.994,0.995c0.723,0.275,1.553,0.443,2.439,0.443
		c0.609,0,1.164-0.055,1.662-0.111c0.5-0.109,1.053-0.275,1.551-0.441c1.055-0.39,2.162-0.942,3.381-1.773
		c1.273-0.833,2.656-1.83,4.209-3.104c1.662-1.384,3.104-2.825,4.266-4.209c1.221-1.386,2.271-2.716,3.104-3.99
		c0.168-0.221,0.225-0.443,0.225-0.609c0-0.056,0-0.11-0.057-0.167c-0.111,0-0.334,0.167-0.666,0.556
		c-0.887,1.106-1.939,2.381-3.104,3.655c-1.219,1.277-2.605,2.55-4.1,3.768c-3.158,2.495-5.705,4.102-7.646,4.767
		c-1.275,0.441-2.604,0.664-3.936,0.664c-1.33,0-2.381-0.277-3.156-0.887c-0.779-0.608-1.164-1.551-1.164-2.825v-0.556
		c0-0.166,0.055-0.332,0.055-0.498c0.166-1.052,0.441-2.382,0.887-3.934c0.445-1.551,0.941-3.155,1.551-4.876
		c0.609-1.716,1.33-3.435,2.051-5.097c0.721-1.718,1.496-3.214,2.271-4.488c0.996-1.662,1.994-3.269,3.047-4.876
		c1.051-1.606,2.162-3.269,3.213-4.931c0.055-0.055,0-0.223-0.111-0.389c-0.113-0.166-0.221-0.277-0.387-0.277
		c-0.168,0-0.277,0.057-0.334,0.111c-0.275,0.389-0.773,0.609-1.441,0.722c-0.055,0.055-0.441,0-1.055-0.057
		c-0.441-0.165-0.885-0.276-1.328-0.333c-0.443-0.109-0.887-0.166-1.33-0.166c-0.389,0-0.775,0.057-1.162,0.111
		c-0.389,0.111-0.775,0.223-1.109,0.332c-1.439,0.554-2.992,1.441-4.654,2.604s-3.436,2.718-5.318,4.598
		c-4.1,4.104-6.15,7.482-6.15,10.084c0,1.275,0.443,1.939,1.383,1.939C400.169,468.521,400.56,468.355,401.058,468.08
		 M451.255,421.261c-3.045,6.203-10.859,12.078-23.436,17.562c-5.264,2.329-10.914,4.378-16.898,6.207
		c-5.984,1.828-12.355,3.436-19.117,4.819c0.111-0.166,0.221-0.387,0.277-0.554c0.055-0.166,0.166-0.387,0.223-0.553h-0.057
		c2.049-4.71,4.211-9.198,6.594-13.464s4.986-8.367,7.754-12.246c9.254-12.966,18.287-19.669,27.207-20.059
		c5.262-0.221,9.75,1.331,13.463,4.377c3.656,3.05,5.32,6.431,4.932,10.363c-0.055,0.608-0.166,1.219-0.334,1.771
		C451.699,420.096,451.533,420.708,451.255,421.261 M386.984,462.484c0.057,1.717,0.389,3.046,1.107,3.877
		c0.723,0.888,1.609,1.386,2.662,1.554c1.051,0.165,2.271-0.058,3.6-0.611c1.33-0.554,2.66-1.386,3.934-2.55
		c0.389-0.387,0.83-0.773,1.275-1.274c0.498-0.498,0.885-0.886,1.164-1.274c0.275-0.387,0.387-0.663,0.275-0.663
		c-0.166-0.111-0.389,0.055-0.666,0.331c-0.389,0.443-0.775,0.888-1.164,1.22c-0.387,0.387-0.83,0.776-1.33,1.163
		c-0.885,0.667-1.828,1.222-2.824,1.607c-1.055,0.443-1.994,0.609-2.828,0.498c-0.885-0.111-1.605-0.554-2.16-1.329
		c-0.609-0.776-0.83-2.051-0.775-3.768c0.057-1.497,0.277-3.214,0.664-5.099c0.445-1.938,1-3.768,1.609-5.483
		c5.598-1.054,11.139-2.384,16.512-3.879c5.434-1.497,10.746-3.325,16.068-5.319c15.348-5.818,24.824-12.023,28.313-18.727
		c0.666-1.275,1.107-2.661,1.219-4.101c0.445-4.434-1.547-8.367-5.65-11.858c-4.1-3.49-8.809-5.153-14.184-4.819
		c-15.682,0.942-30.309,17.009-43.994,47.981v0.168c-0.941,2.158-1.662,4.264-2.162,6.314
		C387.15,458.551,386.927,460.543,386.984,462.484 M359.335,477.885c-0.83,1.83-1.66,3.602-2.438,5.431
		c-0.83,1.83-1.607,3.656-2.438,5.43c-1.498,3.38-3.047,6.428-4.654,9.198c-1.609,2.77-3.217,5.319-4.764,7.591
		c-4.324,6.26-8.535,10.525-12.693,12.798c-2.047,1.108-4.318,1.718-6.701,1.718c-1.83,0-3.547-0.332-5.152-0.942
		c-1.607-0.664-3.104-1.716-4.434-3.048c-2.824-2.77-4.266-6.094-4.266-10.026c0-6.207,3.381-12.135,10.084-17.896
		c2.992-2.605,6.316-4.876,9.971-6.816c3.66-1.939,7.65-3.547,12.025-4.819c3.045-0.888,5.93-1.553,8.754-1.996
		c2.826-0.498,5.65-0.72,8.477-0.772c-0.389,0.829-0.721,1.604-0.994,2.27C359.835,476.724,359.558,477.333,359.335,477.885
		 M366.041,473.065c-0.998-0.11-2.105-0.167-3.27-0.167c1.164-2.824,2.219-5.208,3.27-7.035c1.053-1.883,1.994-3.49,2.881-4.821
		c0.943-1.329,1.771-2.491,2.549-3.547c0.832-1.052,1.551-2.16,2.271-3.323c1.383-0.72,2.66-1.274,3.711-1.661
		c1.109-0.39,2.105-0.556,2.939-0.556c2.217,0,3.324,0.997,3.324,2.993c0,2.326-0.941,4.545-2.824,6.703
		c-3.547,1.164-6.318,2.106-8.313,2.827c-1.994,0.72-3.213,1.273-3.713,1.553c-0.166,0.164-0.221,0.33-0.221,0.551
		c0,0.778,0.389,1.165,1.164,1.054c4.764-0.553,8.697-2.271,11.801-5.151c1.885-0.611,3.602-1.165,5.209-1.663
		c1.609-0.499,3.049-0.942,4.322-1.328c0.166-0.059,0.275-0.113,0.387-0.225c0.057-0.055,0.057-0.109,0-0.164
		c-0.111-0.057-0.221-0.057-0.387,0c-0.664,0-3.268,0.663-7.758,1.828c1.719-2.382,2.551-4.489,2.551-6.428
		c0-2.438-1.33-3.658-3.99-3.658c-0.941,0-2.051,0.111-3.213,0.391c-1.164,0.276-2.547,0.663-4.045,1.273
		c1.387-2.438,2.715-4.655,3.99-6.595c1.273-1.939,2.49-3.767,3.6-5.374c0.221-0.332,0.389-0.499,0.5-0.554
		c0.111-0.057,0.166-0.111,0.166-0.277c0-0.275-0.221-0.332-0.719-0.166c-1.164,0.443-1.83,0.833-1.998,1.108
		c-1.936,2.88-3.6,5.374-4.986,7.534c-1.385,2.161-2.551,3.934-3.492,5.32c-1.715,0.721-2.715,1.384-2.938,1.994
		c-0.111,0.443,0.223,0.996,0.943,1.661c-0.83,1.441-1.607,2.884-2.326,4.322c-0.775,1.496-1.551,2.937-2.385,4.323
		c-0.441,0.719-0.828,1.384-1.107,1.993c-0.275,0.61-0.555,1.164-0.83,1.662c-0.277,0.556-0.5,1.108-0.775,1.607
		c-0.275,0.555-0.609,1.163-0.945,1.827c-3.154,0.057-6.258,0.278-9.359,0.776c-3.105,0.499-6.262,1.165-9.531,2.051
		c-4.543,1.218-8.699,2.825-12.412,4.71c-3.768,1.939-7.146,4.266-10.139,6.869c-5.873,5.099-8.809,10.915-8.809,17.511
		c0,2.271,0.332,4.376,0.996,6.261c0.721,1.938,1.717,3.712,3.104,5.374c2.771,3.214,6.098,4.82,10.031,4.82
		c2.438,0,4.984-0.666,7.592-2.051c4.764-2.602,9.475-7.37,14.127-14.185c4.711-6.815,9.252-15.791,13.738-26.927
		c0.277-0.721,0.609-1.497,0.889-2.217c0.277-0.721,0.609-1.44,0.887-2.158c1.387,0,2.549,0,3.547,0.166
		c0.553,0.053,0.83,0,0.83-0.391C366.871,473.288,366.593,473.122,366.041,473.065 M329.472,469.52
		c0.5-0.277,0.887-0.498,1.275-0.665c0.387-0.168,0.721-0.334,0.996-0.443c0.277-0.166,0.443-0.277,0.443-0.389
		c4.266-7.034,9.143-12.078,14.627-15.071c1.219-0.665,2.271-0.831,2.992-0.498c0.111,0.057,0.275,0.057,0.441,0
		c0.166-0.11,0.334-0.222,0.5-0.388s0.33-0.387,0.443-0.553c0.166-0.224,0.221-0.39,0.221-0.499c0-0.057,0-0.057-0.055-0.111
		c-0.557-0.277-1.385-0.389-2.551-0.332c-1.328,0.553-3.158,1.772-5.539,3.712c-2.271,1.83-4.156,3.656-5.598,5.376
		c-0.111,0.165-0.334,0.331-0.666,0.442c-0.389,0.166-0.609,0.109-0.609-0.055c0-0.168,0.055-0.334,0.166-0.554
		c0.389-0.832,0.998-1.829,1.83-2.995c0.83-1.218,1.885-2.658,3.047-4.266c0.168-0.166,0.221-0.387,0.055-0.607
		c-0.055-0.168-0.221-0.278-0.443-0.278c-0.109,0-0.166,0.055-0.221,0.11c-2.326,1.386-3.713,2.162-4.156,2.328
		c-0.055,0.109-0.055,0.221,0,0.387c0.113,0.333,0.168,0.554,0.168,0.61c0,0.389-0.111,0.831-0.334,1.384
		c-1.273,2.993-3.711,7.261-7.313,12.8c-0.111,0.166-0.111,0.389-0.055,0.555C329.195,469.741,329.306,469.741,329.472,469.52
		 M330.414,452.344c0.113-0.164,0.166-0.443,0.113-0.775c0-0.388-0.057-0.722-0.223-0.997c-0.166-0.333-0.332-0.556-0.607-0.665
		c-0.275-0.111-0.555,0-0.887,0.332c-1.109,0.999-2.387,2.272-3.822,3.768c-1.441,1.496-2.938,3.05-4.488,4.655
		c-1.607,1.606-3.16,3.103-4.764,4.543c-1.609,1.495-3.158,2.659-4.602,3.546c-0.885,0.554-1.607,0.554-2.049,0.167
		c-0.498-0.444-0.498-1.439-0.057-2.937c0.277-0.999,0.723-2.162,1.387-3.492c0.719-1.329,1.494-2.715,2.326-4.1
		c0.828-1.386,1.717-2.77,2.658-4.156c0.941-1.386,1.883-2.549,2.715-3.601c0.334-0.444,0.5-0.776,0.445-0.997
		c-0.057-0.275-0.168-0.444-0.389-0.499c-0.223-0.057-0.5-0.057-0.775,0c-0.332,0.109-0.609,0.276-0.777,0.499
		c-0.498,0.553-1.053,1.274-1.66,2.107c-0.666,0.884-1.387,1.883-2.105,2.935c-0.723,1.052-1.441,2.215-2.162,3.38
		c-0.723,1.218-1.441,2.381-1.996,3.545c-0.609,1.165-1.109,2.33-1.496,3.438c-0.387,1.104-0.664,2.104-0.719,2.935
		c-0.057,0.942,0.219,1.716,0.83,2.326c0.605,0.665,1.439,0.831,2.438,0.498c0.607-0.166,1.496-0.775,2.715-1.771
		c1.273-1.052,2.604-2.216,4.045-3.49c1.441-1.331,2.881-2.66,4.27-3.99c1.439-1.382,2.604-2.49,3.488-3.38
		c0.668-0.665,1.109-0.831,1.33-0.498c0.223,0.389,0.223,0.83,0,1.388c-0.275,0.607-0.553,1.272-0.83,1.992
		c-0.334,0.72-0.609,1.495-0.887,2.217c-0.275,0.72-0.443,1.495-0.609,2.271c-0.166,0.774-0.275,1.496-0.275,2.215
		c0,0.39,0.111,0.722,0.275,1.054c0.221,0.388,0.443,0.665,0.721,0.942c0.275,0.276,0.609,0.499,0.943,0.665
		c0.332,0.166,0.607,0.166,0.828,0.109c0.498-0.166,1-0.441,1.498-0.774c0.553-0.387,0.996-0.774,1.383-1.165
		c0.443-0.387,0.609-0.774,0.557-1.052c0-0.332-0.332-0.277-0.943,0.111c-0.223,0.166-0.5,0.276-0.887,0.442
		s-0.666,0.334-0.945,0.389c-0.275,0.055-0.498,0.166-0.771,0.221c-0.277,0.057-0.555,0.111-0.721,0
		c-0.168,0-0.334-0.221-0.389-0.498c-0.113-0.277-0.113-0.776,0-1.441c0.113-0.719,0.389-1.661,0.83-2.77
		c0.443-1.108,0.941-2.217,1.496-3.381c0.609-1.163,1.219-2.326,1.83-3.433C329.306,454.06,329.916,453.122,330.414,452.344
		 M290.412,466.804c2.16-5.098,5.208-9.476,9.141-13.129c0.555-0.39,0.889-0.554,0.943-0.501c0.664-0.277,1.385-0.441,2.16-0.498
		c0.775-0.111,1.607-0.111,2.494,0c1.662,0.166,2.326,0.831,2.102,1.941c-0.553,2.711-2.713,5.649-6.369,8.975
		c-3.544,3.212-6.538,4.985-9.03,5.43c-1.166,0.221-1.771-0.112-1.771-0.999C290.079,467.635,290.188,467.192,290.412,466.804
		 M291.186,469.741c3.269-0.498,7.039-2.604,11.359-6.314c2.217-1.885,3.879-3.603,4.932-5.21c1.109-1.606,1.715-3.159,1.828-4.541
		c0-0.057,0-0.168-0.055-0.28c-0.057-0.109-0.057-0.221-0.109-0.332c-0.057-0.111-0.057-0.221,0-0.33
		c0.33-0.446,1.053-0.667,2.215-0.667c0.553,0,0.832-0.111,0.832-0.332c0-0.055-0.279-0.166-0.832-0.221
		c-1.553-0.057-2.936-0.057-4.104-0.112c-1.217-0.055-2.268-0.055-3.102-0.111c-0.053-0.053-0.109-0.053-0.219-0.109
		c0-0.057-0.113-0.057-0.17-0.111c-1.107-0.609-1.881-1.054-2.492-0.997c-0.828,0.057-1.607,0.442-2.438,1.22
		c-0.275,0.167-0.441,0.224-0.607,0.224c-0.055,0-0.722,0-2.106,0.055c-0.829,0.057-1.33,0.166-1.441,0.332
		s-0.166,0.332-0.166,0.443c0,0.222,0.166,0.442,0.499,0.665c0.334,0.277,0.667,0.498,0.997,0.667
		c0.223,0.053,0.275,0.219,0.111,0.496c-4.876,5.984-7.368,10.527-7.425,13.575c0,0.276,0.055,0.554,0.221,0.831
		s0.389,0.499,0.61,0.665c0.276,0.168,0.555,0.332,0.829,0.387C290.632,469.741,290.91,469.796,291.186,469.741 M286.312,460.654
		c0.717,0.942,1.052,1.83,0.995,2.604c-0.055,0.722-0.442,1.329-1.22,1.773c-0.498,0.166-0.944,0.277-1.329,0.387
		c-0.387,0.111-0.721,0.166-0.997,0.223c0.553-1.054,1.054-1.996,1.443-2.826C285.646,461.984,286.034,461.264,286.312,460.654
		 M281.102,467.469c-1.164,1.828-2.162,3.38-2.938,4.544c-0.829,1.163-1.382,2.105-1.828,2.658
		c-2.051,2.661-4.211,4.767-6.483,6.262c-2.938,1.939-5.929,2.882-8.976,2.937c-4.211,0.055-6.318-1.274-6.318-4.045
		c0-1.661,0.831-3.157,2.551-4.488c2.657-2.105,6.925-3.934,12.795-5.484c1.998-0.555,3.936-0.997,5.765-1.384
		C277.501,468.08,279.329,467.747,281.102,467.469 M281.823,466.031c-12.136,1.884-20.611,4.652-25.377,8.365
		c-1.828,1.44-2.713,3.046-2.713,4.876c0,1.495,0.665,2.713,1.882,3.712c1.328,1.106,3.103,1.662,5.373,1.717
		c2.715,0.057,5.82-0.942,9.364-2.935c2.273-1.276,4.491-3.271,6.762-6.098c0.776-0.94,1.662-2.104,2.602-3.489
		c0.999-1.387,2.107-3.103,3.269-5.042c0.61-0.164,1.164-0.333,1.607-0.499c0.5-0.166,0.887-0.221,1.165-0.277
		c0.219-0.055,0.442-0.166,0.723-0.387c0.274-0.224,0.549-0.556,0.884-0.942c0.719-0.942,1.052-1.553,1.052-1.885
		c0-0.107-0.053-0.275-0.166-0.554c-0.11-0.277-0.276-0.609-0.387-0.887c-0.166-0.276-0.385-0.608-0.608-0.886
		c-0.223-0.333-0.442-0.61-0.608-0.774c1.273-2.884,2.493-5.543,3.656-8.035c1.164-2.494,2.219-4.821,3.214-7.038
		c0.387-0.387,0.776-0.774,1.054-1.052c0.277-0.277,0.608-0.553,0.887-0.721c0.387-0.386,0.387-0.939,0.055-1.717
		c-0.055-0.057-0.166-0.111-0.221-0.111c-0.721,0-1.22,0.277-1.609,0.831c-0.387,0.611-0.774,1.22-1.108,1.718
		c-0.387,0.499-0.72,0.997-0.995,1.385l-0.113,0.277c-1.828,1.885-3.986,3.879-6.538,5.93c-2.604,2.049-5.541,4.266-8.92,6.592
		c-7.261,5.042-13.13,8.145-17.564,9.364c-0.889,0.221-1.499,0.332-1.832,0.332c-0.5,0-0.774-0.275-0.774-0.775
		c0-0.222,0.055-0.499,0.111-0.831c0.111-0.388,0.275-0.776,0.499-1.218c0.668-1.607,2.493-4.655,5.597-9.087
		c1.884-2.661,3.435-4.933,4.655-6.761c1.218-1.884,2.105-3.38,2.772-4.43c1.272-2.107,2.215-3.992,2.825-5.653
		c0.608-1.719,0.942-3.158,0.942-4.435c0-1.883-0.942-3.71-2.772-5.481c-1.828-1.721-3.822-2.604-5.984-2.552
		c-4.488,0.111-9.308,1.939-14.572,5.43c-4.987,3.325-8.145,6.873-9.585,10.527c-0.387,0.997-0.61,2.105-0.61,3.491
		c0,1.276,0.223,2.327,0.61,3.214c0.722,1.551,2.217,2.604,4.709,3.046c0.722,0.111,1.054,0.057,1.054-0.166
		c0-0.221-0.275-0.33-0.774-0.387c-0.334-0.055-0.667-0.109-1.056-0.277c-0.387-0.167-0.774-0.442-1.218-0.72
		c-0.942-0.665-1.609-1.274-1.885-1.938c-0.276-0.667-0.444-1.442-0.444-2.273c0-1.054,0.278-2.271,0.888-3.658
		c1.664-3.712,5.21-7.202,10.582-10.527c2.604-1.605,5.042-2.771,7.202-3.489c2.217-0.776,4.209-1.054,6.039-0.888
		c4.047,0.334,6.096,2.107,6.096,5.376c0,2.716-1.22,6.205-3.714,10.418c-0.442,0.774-1.328,2.104-2.547,3.986
		c-1.22,1.885-2.827,4.322-4.823,7.259c-3.046,4.49-4.876,7.702-5.484,9.751c-0.166,0.335-0.221,0.724-0.221,1.109
		c0,0.498,0.055,0.941,0.221,1.329c0.166,0.443,0.389,0.831,0.667,1.108s0.608,0.498,0.888,0.665
		c0.332,0.166,0.665,0.166,0.995,0.057c2.271-0.667,4.875-1.719,7.814-3.215c2.937-1.497,6.15-3.491,9.751-5.929
		c5.484-3.766,10.639-7.699,15.292-11.857c0.223-0.166,0.278-0.221,0.333-0.055c0.057,0.055,0,0.221-0.109,0.608
		c-0.721,1.497-1.386,2.993-2.105,4.488c-0.722,1.496-1.496,3.05-2.217,4.545C283.983,462.316,282.543,465.089,281.823,466.031
		 M235.115,467.802c0-1.938-0.166-3.103-0.444-3.38c-0.166-0.055-0.275-0.111-0.332-0.111c-0.166,0-0.387,0.057-0.665,0.111
		c-0.276,0.057-0.5,0.166-0.776,0.277s-0.499,0.224-0.667,0.333c-0.219,0.166-0.333,0.277-0.385,0.387
		c-0.113,0.166-0.113,0.722,0,1.664c0.111,0.832,0.276,1.329,0.385,1.495c0.113,0.166,0.277,0.277,0.5,0.277
		c0.5,0,0.997-0.111,1.55-0.334C234.837,468.246,235.115,468.023,235.115,467.802 M225.254,467.802c0-1.938-0.166-3.103-0.444-3.38
		c-0.166-0.055-0.275-0.111-0.334-0.111c-0.165,0-0.389,0.057-0.665,0.111c-0.277,0.057-0.499,0.166-0.776,0.277
		c-0.276,0.111-0.499,0.224-0.665,0.333c-0.223,0.166-0.333,0.277-0.389,0.387c-0.109,0.166-0.109,0.722,0,1.664
		c0.113,0.832,0.277,1.329,0.389,1.495c0.109,0.166,0.277,0.277,0.499,0.277c0.5,0,0.997-0.111,1.55-0.334
		C224.977,468.246,225.254,468.023,225.254,467.802 M215.391,467.802c0-1.938-0.166-3.103-0.442-3.38
		c-0.166-0.055-0.276-0.111-0.333-0.111c-0.168,0-0.387,0.057-0.667,0.111c-0.277,0.057-0.499,0.166-0.776,0.277
		c-0.276,0.111-0.499,0.224-0.665,0.333c-0.221,0.166-0.332,0.277-0.387,0.387c-0.114,0.166-0.114,0.722,0,1.664
		c0.111,0.832,0.275,1.329,0.387,1.495c0.112,0.166,0.276,0.277,0.499,0.277c0.499,0,0.997-0.111,1.552-0.334
		C215.113,468.246,215.391,468.023,215.391,467.802"/>
	<path opacity="0.2" enable-background="new    " d="M577.533,399.704c-0.754,1.133-1.791,2.172-3.021,3.114
		c-1.318,0.944-2.734,1.794-4.338,2.453c-1.605,0.755-3.209,1.321-5.002,1.699c-1.791,0.38-3.49,0.566-5.094,0.566
		c2.172-2.36,4.436-4.53,6.795-6.7c2.357-2.169,4.717-3.963,7.074-5.281c0.945-0.568,1.795-0.758,2.455-0.852
		c0.754,0,1.32,0.188,1.697,0.566c0.379,0.472,0.566,1.038,0.473,1.792C578.478,397.817,578.193,398.668,577.533,399.704
		 M592.726,404.139c0.281-0.472,0.371-0.755,0.188-0.85c-0.283-0.095-0.566,0-0.85,0.473c-0.754,0.66-1.793,1.414-3.111,2.075
		c-1.416,0.66-2.736,1.04-4.059,1.228c-1.037,0.094-2.17,0.188-3.584,0.285c-1.416,0.092-3.02,0.092-4.623,0.187h-5.189h-5.188
		c3.111-0.472,5.941-1.322,8.395-2.548c2.455-1.227,4.152-2.737,5.094-4.436c0.568-0.944,0.852-1.98,0.664-3.111
		c0-1.134-0.377-2.172-0.85-3.021c-0.564-0.942-1.32-1.604-2.264-2.075c-0.943-0.473-2.076-0.659-3.209-0.188
		c-2.262,0.848-4.621,2.356-7.357,4.526c-2.736,2.174-5.379,4.813-7.83,7.738c-2.549,3.02-4.625,6.229-6.322,9.718
		c-1.793,3.491-2.736,6.889-2.926,10.379c-0.096,1.228,0.189,2.455,0.848,3.491c0.664,1.135,1.416,2.077,2.361,2.925
		c0.943,0.85,1.98,1.417,3.111,1.792c1.131,0.473,2.17,0.567,3.113,0.378c1.133-0.187,2.264-0.47,3.49-0.942
		c1.229-0.472,2.455-1.038,3.586-1.603c1.133-0.568,2.168-1.134,3.113-1.7c0.943-0.659,1.791-1.228,2.451-1.699
		c0.473-0.374,0.664-0.564,0.379-0.754c-0.281-0.283-0.662-0.188-1.133,0.095c-1.697,0.942-3.68,1.887-6.037,2.736
		c-2.361,0.85-4.623,1.509-6.701,1.794c-0.85,0.093-1.604,0-2.357-0.097c-0.85-0.188-1.512-0.472-2.076-0.943
		c-0.662-0.471-1.135-1.226-1.416-2.076c-0.377-0.848-0.568-1.98-0.473-3.396c0.096-1.507,0.377-2.924,0.85-4.338
		c0.471-1.416,1.135-2.833,1.791-4.154c0.662-1.32,1.416-2.546,2.172-3.679c0.846-1.226,1.604-2.264,2.262-3.208h6.604
		c2.551,0,5.002,0,7.551-0.095s4.813-0.095,6.887-0.188c2.168-0.093,3.773-0.189,4.811-0.378c1.795-0.283,3.303-0.848,4.719-1.792
		C591.025,405.648,592.062,404.801,592.726,404.139 M525.355,432.163c0.754,0.095,1.32,0,1.791-0.094
		c0.379-0.093,0.664-0.284,0.85-0.378c0.189-0.095,0.283-0.188,0.283-0.188c1.225,0,2.549-0.757,4.055-2.077
		c3.115-2.736,7.078-6.794,11.701-12.267c1.98-2.358,3.773-4.528,5.283-6.509c1.51-1.983,2.83-3.773,3.869-5.38
		c0.563-0.659,0.943-0.942,1.131-0.752c0.283,0.281,0.756,0.563,1.229,0.752c0.471,0.283,1.131,0.472,1.791,0.662
		c0.85,0.188,1.322,0,1.322-0.662c0-0.189-0.096-0.378-0.283-0.471c-0.756-0.566-1.133-1.226-1.227-1.982
		c-0.096-1.226,0.754-3.114,2.549-5.661c0.094-0.095,0-0.188-0.096-0.473c-0.188-0.281-0.375-0.47-0.66-0.657
		c-0.281-0.285-0.566-0.472-0.85-0.568c-0.281-0.188-0.566-0.283-0.66-0.188c-0.473,0.285-0.945,0.566-1.604,1.038
		c-0.666,0.471-1.416,1.037-2.266,1.698c-0.471,1.228-0.754,2.17-0.85,3.02c-0.188,0.85-0.377,1.414-0.566,1.697
		c-1.508,2.17-3.113,4.342-4.623,6.513c-1.604,2.168-3.207,4.338-4.813,6.51c-2.359,3.206-4.527,5.942-6.32,8.114
		c-1.793,2.17-3.396,3.869-4.719,4.906c-0.943,0.755-1.697,1.131-2.359,1.131c-0.941,0-1.414-0.659-1.414-2.075
		c0-0.564,0.096-1.226,0.281-1.979c1.412-5.002,5.381-11.797,10.662-21.137c0.094-0.094,0.094-0.187,0.189-0.377
		c0.094,0,0.094-0.189,0.094-0.281c0-0.853-0.473-1.229-1.51-1.229c-0.473,0-0.752,0.094-0.945,0.377
		c-7.828,10.759-12.453,19.626-14.055,26.609c-0.191,0.471,0,1.037,0.658,1.509C523.939,431.785,524.601,432.069,525.355,432.163
		 M521.771,391.778c0.188-0.564,0-1.131-0.566-1.603c-0.662-0.566-1.32-0.756-1.982-0.661c-0.85,0.188-1.982,1.039-3.492,2.548
		c-1.414,1.416-2.17,2.642-2.17,3.493c0,0.848,0.662,1.318,2.078,1.602c0.943,0.188,2.076-0.378,3.49-1.698
		C520.638,394.043,521.58,392.817,521.771,391.778 M527.712,420.934c0.379-0.281,0.664-0.66,0.85-1.038
		c0.191-0.378,0.283-0.659,0.191-0.85c0-0.189-0.096-0.281-0.377-0.189c-0.283,0.095-0.664,0.38-1.229,0.944
		c-0.848,0.852-2.168,1.794-3.771,3.02c-1.605,1.228-3.398,2.358-5.287,3.586c-1.885,1.226-3.68,2.267-5.471,3.211
		c-1.791,0.942-3.301,1.507-4.527,1.79c-0.66,0.096-1.225,0.188-1.887,0.283c-0.662,0-1.227-0.188-1.699-0.566
		c-0.471-0.378-0.658-0.944-0.564-1.792c0-0.851,0.375-2.075,1.131-3.681c0.756-1.604,1.227-2.64,1.416-3.112
		c0.283-0.472,0.379-0.852,0.473-1.039c0.094-0.188,0.094-0.375,0.281-0.566c0-0.281,0.377-0.85,0.85-1.888
		c0.473-1.037,1.322-2.548,2.453-4.718c1.227-2.169,2.924-5.283,5-9.34c0.566-1.133,0.754-2.077,0.473-2.737
		c-0.283-0.659-0.664-1.132-1.227-1.32c-0.566-0.187-1.133-0.095-1.795,0.095c-0.658,0.283-1.035,0.85-1.129,1.604
		c-0.096,0.281-0.379,0.944-0.85,1.981c-0.473,1.131-1.133,2.453-1.887,3.962c-0.754,1.606-1.605,3.303-2.453,5.095
		c-0.85,1.888-1.699,3.68-2.453,5.472c-0.756,1.794-1.416,3.492-1.889,5.098c-0.473,1.604-0.756,2.923-0.756,3.963
		c0,1.132,0.283,2.074,0.85,2.831c0.662,0.848,1.322,1.416,2.076,1.887c0.85,0.472,1.607,0.848,2.361,0.944
		c0.848,0.092,1.414,0.092,1.791,0c1.414-0.663,3.02-1.511,4.906-2.645c1.887-1.131,3.775-2.358,5.566-3.586
		c1.887-1.317,3.586-2.547,5.096-3.772C525.828,422.633,526.96,421.688,527.712,420.934 M591.121,352.244
		c-5.189,10.571-18.494,20.572-39.912,29.911c-8.965,3.962-18.588,7.454-28.779,10.567c-10.189,3.114-21.039,5.851-32.551,8.209
		c0.191-0.283,0.377-0.659,0.473-0.944c0.096-0.283,0.283-0.659,0.377-0.942h-0.094c3.49-8.021,7.17-15.664,11.227-22.926
		c4.055-7.269,8.492-14.248,13.209-20.854c15.758-22.08,31.137-33.497,46.326-34.154c8.963-0.38,16.607,2.262,22.93,7.451
		c6.229,5.189,9.059,10.945,8.398,17.646c-0.098,1.035-0.283,2.073-0.568,3.018C591.876,350.263,591.593,351.302,591.121,352.244
		 M481.669,422.444c0.094,2.927,0.66,5.188,1.887,6.605c1.227,1.511,2.736,2.358,4.529,2.642c1.791,0.285,3.867-0.095,6.135-1.039
		c2.262-0.942,4.525-2.358,6.697-4.337c0.66-0.663,1.416-1.324,2.168-2.172c0.85-0.85,1.512-1.511,1.984-2.172
		c0.473-0.659,0.658-1.131,0.473-1.131c-0.283-0.188-0.664,0.094-1.135,0.566c-0.662,0.754-1.322,1.509-1.982,2.077
		c-0.66,0.659-1.416,1.318-2.266,1.979c-1.508,1.133-3.109,2.075-4.811,2.737c-1.791,0.754-3.398,1.037-4.813,0.849
		c-1.51-0.189-2.736-0.944-3.68-2.263c-1.037-1.323-1.414-3.493-1.32-6.419c0.096-2.547,0.473-5.471,1.133-8.681
		c0.752-3.303,1.695-6.416,2.734-9.342c9.533-1.792,18.967-4.056,28.119-6.604c9.246-2.547,18.307-5.661,27.363-9.059
		c26.137-9.906,42.27-20.475,48.213-31.888c1.135-2.174,1.885-4.532,2.076-6.985c0.752-7.548-2.641-14.248-9.623-20.192
		c-6.984-5.944-15.002-8.775-24.156-8.209c-26.701,1.605-51.609,28.968-74.918,81.711v0.283c-1.602,3.679-2.83,7.265-3.678,10.757
		C481.955,415.746,481.576,419.14,481.669,422.444 M417.89,429.804c3.678-8.679,8.869-16.136,15.566-22.362
		c0.943-0.66,1.512-0.944,1.607-0.85c1.131-0.472,2.357-0.755,3.68-0.85c1.318-0.188,2.734-0.188,4.244,0
		c2.83,0.283,3.965,1.416,3.584,3.303c-0.943,4.623-4.623,9.627-10.85,15.284c-6.039,5.475-11.135,8.492-15.381,9.248
		c-1.98,0.377-3.021-0.188-3.021-1.698C417.322,431.219,417.513,430.464,417.89,429.804 M419.21,434.806
		c5.566-0.852,11.982-4.438,19.342-10.758c3.773-3.208,6.604-6.134,8.398-8.869c1.887-2.736,2.924-5.379,3.109-7.737
		c0-0.092,0-0.283-0.094-0.472s-0.094-0.378-0.188-0.564c-0.094-0.191-0.094-0.38,0-0.568c0.564-0.756,1.793-1.132,3.773-1.132
		c0.943,0,1.416-0.187,1.416-0.566c0-0.092-0.473-0.283-1.416-0.377c-2.643-0.095-5.002-0.095-6.982-0.188
		c-2.076-0.096-3.869-0.096-5.283-0.19c-0.094-0.095-0.189-0.095-0.377-0.189c0-0.092-0.189-0.092-0.283-0.188
		c-1.885-1.036-3.207-1.79-4.246-1.697c-1.414,0.094-2.736,0.755-4.15,2.075c-0.471,0.283-0.754,0.378-1.037,0.378
		c-0.098,0-1.227,0-3.586,0.094c-1.416,0.095-2.264,0.283-2.453,0.566c-0.191,0.283-0.281,0.566-0.281,0.754
		c0,0.378,0.281,0.757,0.848,1.133c0.568,0.473,1.133,0.85,1.699,1.133c0.373,0.095,0.471,0.378,0.188,0.85
		c-8.305,10.19-12.549,17.927-12.643,23.116c0,0.472,0.094,0.944,0.377,1.414c0.283,0.473,0.66,0.85,1.039,1.133
		c0.469,0.283,0.941,0.566,1.414,0.661C418.267,434.806,418.738,434.899,419.21,434.806 M407.134,485.66
		c4.246,0,8.682-1.226,13.398-3.772c4.813-2.546,9.908-6.229,15.383-11.134c10.752-9.72,16.795-18.776,18.02-27.079
		c0.189-1.416-0.754-3.586-2.643-6.417c-1.793-2.736-3.771-4.058-5.754-4.058c-0.471,0-0.85,0-1.133,0.095
		c-1.605,0.66-2.736,1.227-3.305,1.604c-0.66,0.38-1.133,0.85-1.412,1.322c-0.096,0.564,0.096,0.848,0.752,0.848
		c0.283,0,0.85-0.188,1.512-0.661c0.662-0.472,1.51-0.659,2.453-0.85c4.244-0.659,6.322,1.889,6.322,7.835
		c-0.471,3.394-1.887,6.979-4.059,10.754c-2.262,3.773-5.469,7.831-9.621,12.171c-4.059,4.341-8.021,7.834-11.891,10.568
		c-3.869,2.736-7.83,4.718-11.793,5.941c-2.736,0.85-5.189,1.229-7.359,1.229c-7.738,0-11.605-5.475-11.605-16.42v-2.264
		c0-0.661,0-1.416,0.094-2.265c0.473-5.85,1.979-12.455,4.527-19.718c2.549-7.362,5.852-15.571,10.283-24.536
		c2.738-5.659,5.756-10.944,8.682-15.754c2.926-4.813,6.135-9.72,9.438-14.627c0.566-0.754,1.318-1.32,2.357-1.507
		c5.943-0.285,11.135-0.568,15.758-0.853c4.623-0.283,8.771-0.472,12.359-0.66c0.568,0,1.039-0.374,1.32-0.847
		c0.379-0.568,0.566-0.943,0.566-1.04c-0.188-0.188-0.566-0.283-1.131-0.283c-0.471,0-1.793,0-3.773-0.093h-8.686h-13.68
		c-1.414,0-1.695-0.755-0.66-2.172c13.586-18.775,23.4-28.684,29.346-29.909c0.66-0.188,0.941-0.378,0.941-0.661
		c0-0.566-0.375-0.848-1.037-0.848c-0.756,0-1.416,0.093-2.076,0.376c-0.662,0.283-1.793,0.661-3.303,1.228
		c-3.113,1.131-4.906,1.98-5.287,2.452c-4.338,5.001-8.488,9.907-12.453,14.531c-3.961,4.717-7.453,9.435-10.473,14.153
		c-0.094,0.188-0.094,0.378,0.094,0.564c0.189,0.188,0.189,0.285-0.094,0.285c-3.021,0-5.379,0.093-6.982,0.281
		c-1.695,0.191-2.641,0.473-2.832,0.85c-0.469,1.039,0.379,2.075,2.645,2.926c1.131,0.662,1.693,1.509,1.693,2.642
		c0,1.038-0.375,1.98-1.131,2.83c-3.209,4.623-6.414,9.908-9.623,15.757c-3.207,5.851-6.416,12.455-9.629,19.722
		c-7.262,16.511-10.848,29.249-10.848,38.117c0,2.736,0.189,5.19,0.662,7.455c0.473,2.358,1.51,4.339,3.209,6.226
		C397.982,483.773,402.13,485.66,407.134,485.66 M356.656,399.704c-0.754,1.133-1.793,2.172-3.02,3.114
		c-1.322,0.944-2.736,1.794-4.34,2.453c-1.607,0.755-3.209,1.321-5.002,1.699c-1.793,0.38-3.49,0.566-5.096,0.566
		c2.17-2.36,4.438-4.53,6.797-6.7c2.357-2.169,4.717-3.963,7.076-5.281c0.943-0.568,1.791-0.758,2.451-0.852
		c0.754,0,1.322,0.188,1.699,0.566c0.377,0.472,0.566,1.038,0.469,1.792C357.599,397.817,357.318,398.668,356.656,399.704
		 M371.845,404.139c0.283-0.472,0.377-0.755,0.189-0.85c-0.283-0.095-0.564,0-0.848,0.473c-0.754,0.66-1.793,1.414-3.113,2.075
		c-1.416,0.66-2.734,1.04-4.057,1.228c-1.037,0.094-2.17,0.188-3.582,0.285c-1.416,0.092-3.021,0.092-4.627,0.187h-5.186h-5.189
		c3.111-0.472,5.941-1.322,8.393-2.548c2.455-1.227,4.152-2.737,5.098-4.436c0.568-0.944,0.85-1.98,0.66-3.111
		c0-1.134-0.375-2.172-0.848-3.021c-0.568-0.942-1.32-1.604-2.264-2.075c-0.945-0.473-2.078-0.659-3.209-0.188
		c-2.264,0.848-4.623,2.356-7.357,4.526c-2.736,2.174-5.379,4.813-7.83,7.738c-2.549,3.02-4.627,6.229-6.322,9.718
		c-1.795,3.491-2.736,6.889-2.928,10.379c-0.096,1.228,0.191,2.455,0.848,3.491c0.664,1.135,1.418,2.077,2.361,2.925
		c0.939,0.85,1.98,1.417,3.113,1.792c1.131,0.473,2.168,0.567,3.111,0.378c1.135-0.187,2.266-0.47,3.492-0.942
		c1.229-0.472,2.453-1.038,3.584-1.603c1.133-0.568,2.17-1.134,3.115-1.7c0.941-0.659,1.791-1.228,2.453-1.699
		c0.471-0.374,0.662-0.564,0.377-0.754c-0.283-0.283-0.66-0.188-1.133,0.095c-1.697,0.942-3.682,1.887-6.039,2.736
		c-2.359,0.85-4.623,1.509-6.697,1.794c-0.852,0.093-1.607,0-2.359-0.097c-0.85-0.188-1.512-0.472-2.082-0.943
		c-0.656-0.471-1.129-1.226-1.412-2.076c-0.375-0.848-0.566-1.98-0.471-3.396c0.096-1.507,0.377-2.924,0.85-4.338
		c0.471-1.416,1.131-2.833,1.791-4.154c0.66-1.32,1.416-2.546,2.168-3.679c0.85-1.226,1.607-2.264,2.266-3.208h6.604
		c2.549,0,5.002,0,7.549-0.095c2.549-0.095,4.813-0.095,6.889-0.188c2.168-0.093,3.773-0.189,4.811-0.378
		c1.795-0.283,3.303-0.848,4.717-1.792C370.15,405.648,371.185,404.801,371.845,404.139 M324.951,407.065
		c0,0.094,0,0.094-0.094,0.094v0.095C324.951,407.159,324.951,407.159,324.951,407.065 M335.423,400.745
		c1.039-1.229,1.512-2.359,1.512-3.494c0-1.131-0.283-2.075-0.943-2.83c-0.662-0.754-1.605-1.318-2.641-1.604
		c-1.133-0.283-2.268-0.283-3.492,0.095c-1.51,0.472-3.113,1.319-4.908,2.358c-1.791,1.133-3.49,2.453-5.285,4.058
		c-1.791,1.604-3.49,3.396-5.094,5.378c-1.697,1.981-3.207,4.151-4.527,6.32c-1.322,2.172-2.453,4.437-3.207,6.795
		c-0.854,2.36-1.416,4.623-1.51,6.887c-0.094,1.228,0.189,2.453,0.848,3.586c0.662,1.133,1.416,2.075,2.359,2.831
		c1.037,0.852,2.076,1.416,3.111,1.794c1.135,0.472,2.172,0.564,3.113,0.376c1.227-0.189,2.359-0.473,3.584-0.942
		c1.229-0.473,2.359-1.039,3.494-1.605c1.131-0.566,2.168-1.129,3.111-1.697c0.941-0.661,1.793-1.228,2.453-1.7
		c0.473-0.375,0.662-0.563,0.473-0.753c-0.281-0.281-0.66-0.189-1.133,0.094c-1.793,1.039-3.775,1.983-6.133,2.831
		c-2.359,0.848-4.623,1.511-6.699,1.697c-0.85,0.095-1.605,0-2.359-0.094c-0.848-0.189-1.51-0.473-2.076-0.944
		c-0.662-0.471-1.135-1.226-1.414-2.075c-0.377-0.848-0.568-1.981-0.473-3.397c0.189-3.02,1.131-5.851,2.641-8.492
		c1.508-2.642,3.021-4.906,4.436-6.887l1.133-1.509c1.887-2.549,4.34-4.625,6.699-6.794c2.359-2.168,4.719-3.964,7.076-5.284
		c0.945-0.566,1.793-0.755,2.451-0.85c0.758,0,1.324,0.19,1.699,0.566c0.379,0.473,0.566,1.041,0.473,1.792
		c-0.094,0.756-0.377,1.7-1.037,2.642c-0.754,1.134-1.984,2.267-3.586,3.683c-1.605,1.414-3.209,2.64-4.623,3.679
		c2.551-0.566,4.623-1.416,6.322-2.642C332.97,403.385,334.386,402.064,335.423,400.745 M276.264,423.957
		c0.85-1.985,2.077-4.155,3.493-6.325c1.509-2.169,3.301-4.528,5.471-6.889c4.528-5,8.303-7.831,11.228-8.584
		c0.753-0.188,1.509-0.283,2.17-0.283c1.223,0,2.262,0.283,3.111,0.848c0.848,0.661,1.227,1.324,1.227,1.982
		c0,0.283-0.096,0.471-0.285,0.659c-4.434,5.378-8.678,9.908-12.547,13.587c-3.869,3.775-7.642,6.795-11.133,8.964
		c-0.472,0.285-0.944,0.473-1.417,0.473c-1.131,0-1.696-0.756-1.696-2.265C275.888,425.371,275.981,424.613,276.264,423.957
		 M274.753,431.976c3.965-2.358,8.775-5.758,14.248-10.476c2.831-2.36,5.189-4.624,7.268-6.604c2.168-1.982,3.961-3.965,5.471-5.757
		c0.094-0.095,0.191-0.189,0.283-0.189c0.471,0,0.564,0.378,0.094,1.039c-1.037,1.604-2.076,3.396-3.111,5.38
		c-1.041,1.979-2.171,4.054-3.208,6.318c-0.85,1.889-1.792,4.059-2.642,6.513c-0.85,2.451-1.698,4.904-2.453,7.357
		c-0.755,2.551-1.416,4.91-1.794,7.077c-0.468,2.172-0.751,3.962-0.848,5.284c-0.093,1.604,0.096,3.113,0.566,4.339
		c0.472,1.322,1.417,2.267,2.547,3.02c1.039,0.661,2.172,1.228,3.397,1.7c1.228,0.472,2.642,0.753,4.153,0.753
		c1.037,0,1.98-0.093,2.83-0.185c0.848-0.191,1.793-0.473,2.643-0.758c1.787-0.659,3.676-1.603,5.756-3.018
		c2.168-1.416,4.525-3.115,7.17-5.285c2.83-2.358,5.283-4.812,7.266-7.172c2.076-2.358,3.867-4.621,5.283-6.793
		c0.283-0.377,0.379-0.755,0.379-1.038c0-0.093,0-0.188-0.096-0.283c-0.188,0-0.566,0.283-1.133,0.944
		c-1.512,1.886-3.305,4.056-5.285,6.228c-2.074,2.17-4.436,4.339-6.98,6.415c-5.381,4.246-9.719,6.984-13.023,8.114
		c-2.168,0.757-4.434,1.133-6.699,1.133c-2.264,0-4.057-0.473-5.378-1.509c-1.32-1.039-1.982-2.641-1.982-4.813v-0.942
		c0-0.283,0.096-0.566,0.096-0.85c0.281-1.792,0.753-4.057,1.511-6.7c0.751-2.64,1.603-5.378,2.64-8.301
		c1.039-2.927,2.264-5.851,3.492-8.681c1.226-2.926,2.548-5.473,3.87-7.645c1.697-2.831,3.396-5.567,5.188-8.302
		c1.793-2.737,3.682-5.568,5.471-8.399c0.098-0.092,0-0.377-0.188-0.658c-0.189-0.283-0.379-0.473-0.662-0.473
		s-0.469,0.097-0.566,0.189c-0.473,0.658-1.32,1.036-2.455,1.226c-0.092,0.096-0.75,0-1.791-0.095
		c-0.754-0.281-1.51-0.473-2.262-0.566c-0.756-0.188-1.512-0.281-2.266-0.281c-0.662,0-1.322,0.094-1.98,0.187
		c-0.662,0.188-1.322,0.38-1.888,0.566c-2.453,0.944-5.095,2.453-7.925,4.436c-2.831,1.983-5.85,4.623-9.059,7.829
		c-6.981,6.983-10.473,12.737-10.473,17.173c0,2.17,0.753,3.301,2.358,3.301C273.245,432.727,273.907,432.448,274.753,431.976
		 M360.242,352.244c-5.189,10.571-18.494,20.572-39.912,29.911c-8.963,3.962-18.59,7.454-28.777,10.567
		c-10.193,3.114-21.044,5.851-32.552,8.209c0.187-0.283,0.376-0.659,0.47-0.944c0.095-0.283,0.283-0.659,0.378-0.942h-0.095
		c3.492-8.021,7.172-15.664,11.227-22.926c4.058-7.269,8.492-14.248,13.209-20.854c15.759-22.08,31.136-33.497,46.33-34.154
		c8.963-0.38,16.605,2.262,22.928,7.451c6.229,5.189,9.059,10.945,8.396,17.646c-0.094,1.035-0.281,2.073-0.566,3.018
		C360.994,350.263,360.712,351.302,360.242,352.244 M250.792,422.444c0.094,2.927,0.659,5.188,1.886,6.605
		c1.224,1.511,2.736,2.358,4.525,2.642c1.795,0.285,3.871-0.095,6.133-1.039c2.266-0.942,4.53-2.358,6.702-4.337
		c0.661-0.663,1.415-1.324,2.17-2.172c0.85-0.85,1.509-1.511,1.98-2.172c0.472-0.659,0.663-1.131,0.472-1.131
		c-0.281-0.188-0.661,0.094-1.133,0.566c-0.661,0.754-1.32,1.509-1.981,2.077c-0.663,0.659-1.415,1.318-2.264,1.979
		c-1.511,1.133-3.114,2.075-4.812,2.737c-1.794,0.754-3.399,1.037-4.815,0.849c-1.511-0.189-2.734-0.944-3.677-2.263
		c-1.039-1.323-1.416-3.493-1.322-6.419c0.095-2.547,0.472-5.471,1.133-8.681c0.753-3.303,1.698-6.416,2.736-9.342
		c9.528-1.792,18.964-4.056,28.117-6.604c9.246-2.547,18.305-5.661,27.363-9.059c26.135-9.906,42.27-20.475,48.213-31.888
		c1.133-2.174,1.889-4.532,2.076-6.985c0.754-7.548-2.639-14.248-9.625-20.192c-6.98-5.944-15-8.775-24.152-8.209
		c-26.703,1.605-51.613,28.968-74.917,81.711v0.283c-1.605,3.679-2.831,7.265-3.68,10.757
		C251.071,415.746,250.698,419.14,250.792,422.444 M203.706,448.675c-1.415,3.114-2.831,6.134-4.149,9.246
		c-1.416,3.113-2.736,6.228-4.152,9.247c-2.549,5.756-5.189,10.944-7.925,15.662c-2.736,4.719-5.471,9.058-8.114,12.928
		c-7.359,10.661-14.531,17.926-21.606,21.795c-3.492,1.887-7.359,2.925-11.417,2.925c-3.112,0-6.037-0.566-8.773-1.604
		c-2.736-1.13-5.286-2.924-7.548-5.189c-4.815-4.717-7.268-10.379-7.268-17.078c0-10.567,5.757-20.662,17.172-30.475
		c5.097-4.436,10.758-8.305,16.986-11.605c6.228-3.303,13.02-6.039,20.476-8.209c5.189-1.509,10.095-2.642,14.905-3.396
		c4.815-0.852,9.628-1.229,14.438-1.323c-0.663,1.416-1.225,2.738-1.697,3.869C204.556,446.694,204.083,447.73,203.706,448.675
		 M215.123,440.469c-1.696-0.191-3.584-0.285-5.565-0.285c1.981-4.812,3.775-8.87,5.565-11.982c1.794-3.21,3.399-5.946,4.908-8.21
		c1.605-2.263,3.02-4.245,4.341-6.037c1.415-1.794,2.642-3.681,3.867-5.662c2.36-1.227,4.53-2.171,6.324-2.83
		c1.885-0.661,3.584-0.942,4.999-0.942c3.775,0,5.661,1.695,5.661,5.093c0,3.962-1.603,7.736-4.812,11.417
		c-6.039,1.983-10.756,3.584-14.153,4.813c-3.397,1.226-5.472,2.168-6.322,2.64c-0.284,0.284-0.378,0.567-0.378,0.944
		c0,1.32,0.661,1.981,1.983,1.792c8.114-0.943,14.81-3.869,20.098-8.774c3.207-1.037,6.131-1.981,8.868-2.831
		c2.736-0.848,5.189-1.604,7.361-2.265c0.279-0.092,0.472-0.188,0.659-0.377c0.094-0.095,0.094-0.188,0-0.283
		c-0.187-0.095-0.378-0.095-0.659,0c-1.137,0-5.567,1.133-13.211,3.113c2.925-4.056,4.341-7.642,4.341-10.944
		c0-4.151-2.264-6.227-6.794-6.227c-1.605,0-3.493,0.188-5.472,0.659c-1.979,0.473-4.339,1.133-6.885,2.172
		c2.357-4.152,4.621-7.928,6.792-11.23c2.17-3.301,4.247-6.414,6.133-9.148c0.378-0.568,0.661-0.852,0.85-0.944
		c0.188-0.097,0.281-0.19,0.281-0.473c0-0.472-0.378-0.568-1.226-0.285c-1.983,0.758-3.114,1.417-3.399,1.889
		c-3.299,4.906-6.132,9.151-8.492,12.831c-2.356,3.681-4.339,6.7-5.94,9.059c-2.925,1.226-4.625,2.358-5.002,3.396
		c-0.189,0.755,0.377,1.699,1.607,2.831c-1.416,2.456-2.736,4.907-3.965,7.36c-1.318,2.548-2.64,5.001-4.055,7.359
		c-0.757,1.228-1.416,2.358-1.888,3.398c-0.47,1.037-0.942,1.979-1.415,2.831c-0.472,0.944-0.85,1.887-1.322,2.734
		c-0.47,0.944-1.037,1.982-1.603,3.114c-5.38,0.094-10.662,0.472-15.945,1.321c-5.284,0.848-10.662,1.981-16.229,3.49
		c-7.74,2.075-14.814,4.812-21.136,8.02c-6.415,3.303-12.172,7.267-17.267,11.7c-10.002,8.681-15.001,18.587-15.001,29.817
		c0,3.867,0.566,7.453,1.698,10.659c1.224,3.303,2.925,6.322,5.283,9.153c4.719,5.472,10.38,8.208,17.079,8.208
		c4.152,0,8.492-1.131,12.926-3.491c8.116-4.434,16.136-12.55,24.061-24.154c8.02-11.605,15.756-26.888,23.399-45.853
		c0.472-1.229,1.039-2.55,1.51-3.775c0.472-1.229,1.039-2.454,1.511-3.682c2.359,0,4.341,0,6.037,0.283
		c0.944,0.097,1.417,0,1.417-0.661C216.539,440.844,216.067,440.56,215.123,440.469 M152.851,434.427
		c0.85-0.473,1.509-0.85,2.17-1.133c0.661-0.284,1.226-0.567,1.698-0.754c0.47-0.283,0.753-0.472,0.753-0.661
		c7.266-11.983,15.569-20.57,24.907-25.665c2.079-1.133,3.871-1.414,5.095-0.85c0.189,0.097,0.472,0.097,0.755,0
		c0.279-0.188,0.566-0.376,0.848-0.659c0.283-0.283,0.568-0.658,0.755-0.943c0.284-0.378,0.378-0.659,0.378-0.851
		c0-0.094,0-0.094-0.095-0.188c-0.944-0.472-2.36-0.659-4.341-0.564c-2.264,0.944-5.38,3.018-9.436,6.32
		c-3.869,3.115-7.076,6.228-9.528,9.152c-0.191,0.283-0.568,0.568-1.135,0.756c-0.659,0.285-1.037,0.188-1.037-0.095
		s0.095-0.564,0.282-0.944c0.661-1.414,1.697-3.113,3.114-5.095c1.414-2.073,3.207-4.53,5.189-7.265
		c0.283-0.283,0.378-0.66,0.095-1.038c-0.095-0.283-0.378-0.472-0.753-0.472c-0.191,0-0.284,0.096-0.378,0.188
		c-3.965,2.358-6.322,3.683-7.076,3.964c-0.094,0.188-0.094,0.375,0,0.66c0.187,0.565,0.281,0.944,0.281,1.037
		c0,0.661-0.188,1.414-0.568,2.358c-2.167,5.097-6.32,12.361-12.454,21.796c-0.19,0.283-0.19,0.661-0.094,0.944
		C152.379,434.806,152.569,434.806,152.851,434.427 M154.456,405.177c0.19-0.283,0.283-0.754,0.19-1.32
		c0-0.661-0.094-1.226-0.377-1.697c-0.283-0.566-0.567-0.942-1.039-1.133c-0.472-0.189-0.942,0-1.509,0.566
		c-1.889,1.697-4.058,3.869-6.511,6.414c-2.455,2.548-4.999,5.191-7.642,7.928c-2.736,2.738-5.38,5.283-8.116,7.737
		c-2.734,2.547-5.378,4.529-7.829,6.038c-1.511,0.942-2.736,0.942-3.494,0.282c-0.848-0.754-0.848-2.453-0.092-5.001
		c0.472-1.697,1.224-3.679,2.356-5.944c1.228-2.263,2.549-4.621,3.966-6.979c1.414-2.358,2.925-4.717,4.528-7.078
		c1.603-2.358,3.206-4.341,4.621-6.131c0.568-0.758,0.85-1.324,0.755-1.701c-0.096-0.473-0.283-0.754-0.661-0.849
		c-0.38-0.094-0.848-0.094-1.32,0c-0.568,0.191-1.041,0.471-1.322,0.849c-0.848,0.943-1.792,2.171-2.831,3.588
		c-1.133,1.507-2.358,3.206-3.584,4.998c-1.228,1.794-2.455,3.774-3.681,5.756c-1.226,2.075-2.453,4.058-3.397,6.039
		c-1.039,1.98-1.885,3.963-2.547,5.85c-0.663,1.887-1.133,3.587-1.226,5.001c-0.094,1.604,0.376,2.925,1.416,3.964
		c1.037,1.131,2.453,1.414,4.149,0.848c1.041-0.281,2.549-1.32,4.625-3.02c2.168-1.792,4.434-3.773,6.885-5.942
		c2.453-2.267,4.91-4.529,7.269-6.795c2.453-2.358,4.434-4.245,5.942-5.756c1.133-1.133,1.885-1.414,2.264-0.85
		c0.378,0.661,0.378,1.416,0,2.36c-0.472,1.037-0.944,2.172-1.416,3.396c-0.566,1.228-1.037,2.547-1.509,3.774
		s-0.755,2.548-1.041,3.87c-0.281,1.319-0.472,2.549-0.472,3.772c0,0.663,0.191,1.228,0.472,1.794
		c0.379,0.659,0.755,1.131,1.228,1.604c0.472,0.472,1.037,0.85,1.605,1.133c0.566,0.281,1.039,0.281,1.416,0.187
		c0.848-0.279,1.696-0.751,2.547-1.319c0.942-0.661,1.698-1.32,2.359-1.981c0.755-0.66,1.041-1.321,0.944-1.794
		c0-0.564-0.566-0.472-1.605,0.189c-0.377,0.283-0.85,0.472-1.509,0.755c-0.663,0.283-1.135,0.568-1.607,0.661
		c-0.472,0.095-0.85,0.283-1.322,0.38c-0.472,0.092-0.944,0.187-1.224,0c-0.283,0-0.568-0.38-0.665-0.852
		c-0.187-0.473-0.187-1.322,0-2.451c0.192-1.229,0.665-2.831,1.416-4.72c0.757-1.887,1.605-3.774,2.549-5.754
		c1.041-1.984,2.077-3.965,3.116-5.852C152.569,408.101,153.608,406.498,154.456,405.177 M86.333,429.804
		c3.681-8.679,8.87-16.136,15.568-22.362c0.944-0.66,1.509-0.944,1.605-0.85c1.131-0.472,2.36-0.755,3.68-0.85
		c1.32-0.188,2.736-0.188,4.245,0c2.833,0.283,3.964,1.416,3.584,3.303c-0.942,4.623-4.621,9.627-10.852,15.284
		c-6.035,5.475-11.132,8.492-15.377,9.248c-1.983,0.377-3.02-0.188-3.02-1.698C85.769,431.219,85.958,430.464,86.333,429.804
		 M87.653,434.806c5.567-0.852,11.984-4.438,19.343-10.758c3.774-3.208,6.605-6.134,8.397-8.869
		c1.886-2.736,2.925-5.379,3.114-7.737c0-0.092,0-0.283-0.096-0.472c-0.095-0.188-0.095-0.378-0.189-0.564
		c-0.096-0.191-0.096-0.38,0-0.568c0.566-0.756,1.792-1.132,3.775-1.132c0.942,0,1.414-0.187,1.414-0.566
		c0-0.092-0.472-0.283-1.414-0.377c-2.642-0.095-4.999-0.095-6.983-0.188c-2.075-0.096-3.867-0.096-5.283-0.19
		c-0.095-0.095-0.191-0.095-0.378-0.189c0-0.092-0.189-0.092-0.283-0.188c-1.885-1.036-3.205-1.79-4.245-1.697
		c-1.416,0.094-2.734,0.755-4.15,2.075c-0.47,0.283-0.753,0.378-1.039,0.378c-0.093,0-1.226,0-3.584,0.094
		c-1.414,0.095-2.264,0.283-2.453,0.566s-0.283,0.566-0.283,0.754c0,0.378,0.283,0.757,0.85,1.133
		c0.566,0.473,1.131,0.85,1.698,1.133c0.375,0.095,0.472,0.378,0.188,0.85c-8.301,10.19-12.548,17.927-12.642,23.116
		c0,0.472,0.096,0.944,0.379,1.414c0.279,0.473,0.657,0.85,1.037,1.133c0.472,0.283,0.944,0.566,1.417,0.661
		C86.709,434.806,87.182,434.899,87.653,434.806 M79.351,419.33c1.227,1.604,1.792,3.114,1.699,4.436
		c-0.096,1.226-0.755,2.265-2.079,3.021c-0.85,0.281-1.603,0.471-2.266,0.657c-0.659,0.188-1.224,0.285-1.696,0.378
		c0.944-1.792,1.792-3.396,2.455-4.81C78.219,421.595,78.878,420.368,79.351,419.33 M70.481,430.935
		c-1.981,3.114-3.677,5.758-5,7.737c-1.413,1.982-2.356,3.586-3.112,4.53c-3.49,4.527-7.17,8.113-11.04,10.661
		c-5,3.303-10.095,4.906-15.284,5c-7.174,0.097-10.756-2.169-10.756-6.887c0-2.83,1.415-5.38,4.34-7.642
		c4.528-3.586,11.794-6.698,21.795-9.342c3.397-0.944,6.7-1.699,9.812-2.358C64.35,431.976,67.465,431.408,70.481,430.935
		 M71.71,428.482c-20.664,3.209-35.101,7.926-43.215,14.248c-3.112,2.453-4.623,5.189-4.623,8.303c0,2.548,1.133,4.625,3.207,6.322
		c2.264,1.887,5.285,2.831,9.155,2.926c4.621,0.096,9.906-1.605,15.943-5.003c3.869-2.169,7.642-5.566,11.513-10.378
		c1.318-1.604,2.831-3.586,4.434-5.944c1.7-2.358,3.586-5.284,5.567-8.587c1.039-0.281,1.983-0.564,2.736-0.848
		c0.848-0.283,1.511-0.376,1.983-0.472c0.374-0.095,0.753-0.283,1.226-0.661c0.472-0.378,0.944-0.944,1.509-1.602
		c1.227-1.606,1.792-2.644,1.792-3.21c0-0.189-0.093-0.473-0.281-0.944c-0.189-0.472-0.472-1.037-0.663-1.507
		c-0.281-0.473-0.659-1.041-1.037-1.513c-0.376-0.566-0.755-1.037-1.039-1.32c2.169-4.907,4.247-9.436,6.228-13.681
		c1.981-4.247,3.773-8.209,5.473-11.981c0.661-0.663,1.32-1.324,1.792-1.794c0.472-0.473,1.039-0.944,1.511-1.228
		c0.659-0.661,0.659-1.604,0.094-2.926c-0.094-0.094-0.283-0.187-0.377-0.187c-1.226,0-2.077,0.472-2.734,1.416
		c-0.663,1.035-1.324,2.073-1.888,2.924c-0.661,0.85-1.226,1.697-1.698,2.358l-0.191,0.472c-3.112,3.207-6.792,6.605-11.134,10.096
		c-4.436,3.491-9.434,7.264-15.19,11.228c-12.363,8.587-22.362,13.87-29.911,15.945c-1.509,0.378-2.549,0.568-3.114,0.568
		c-0.846,0-1.318-0.472-1.318-1.323c0-0.376,0.093-0.848,0.189-1.414c0.188-0.661,0.472-1.322,0.848-2.076
		c1.133-2.733,4.245-7.925,9.531-15.475c3.208-4.528,5.85-8.397,7.925-11.512c2.073-3.204,3.584-5.756,4.717-7.546
		c2.169-3.588,3.773-6.794,4.813-9.625c1.037-2.925,1.604-5.38,1.604-7.55c0-3.208-1.604-6.32-4.717-9.338
		c-3.114-2.927-6.511-4.438-10.189-4.343c-7.646,0.188-15.854,3.303-24.817,9.247c-8.492,5.661-13.87,11.702-16.327,17.927
		C0.377,390.176,0,392.062,0,394.421c0,2.169,0.377,3.965,1.037,5.472c1.228,2.643,3.777,4.437,8.022,5.189
		c1.226,0.189,1.792,0.095,1.792-0.281c0-0.378-0.472-0.566-1.32-0.661c-0.568-0.092-1.133-0.188-1.792-0.472
		c-0.665-0.283-1.32-0.756-2.077-1.228c-1.605-1.131-2.736-2.168-3.208-3.301S1.7,396.684,1.7,395.27
		c0-1.792,0.472-3.869,1.51-6.228c2.831-6.32,8.868-12.266,18.021-17.927c4.438-2.736,8.586-4.719,12.267-5.942
		c3.773-1.324,7.17-1.796,10.284-1.513c6.887,0.568,10.376,3.586,10.376,9.155c0,4.62-2.073,10.564-6.318,17.737
		c-0.755,1.319-2.268,3.586-4.343,6.792c-2.075,3.208-4.812,7.36-8.208,12.363c-5.189,7.64-8.301,13.112-9.342,16.606
		c-0.279,0.564-0.375,1.224-0.375,1.886c0,0.849,0.096,1.604,0.375,2.263c0.283,0.755,0.661,1.416,1.133,1.889
		c0.472,0.47,1.041,0.848,1.512,1.131c0.565,0.283,1.131,0.283,1.696,0.095c3.87-1.13,8.303-2.926,13.304-5.473
		c5-2.548,10.475-5.944,16.608-10.096c9.34-6.415,18.117-13.116,26.042-20.192c0.375-0.283,0.472-0.375,0.564-0.094
		c0.096,0.094,0,0.377-0.189,1.038c-1.228,2.548-2.356,5.095-3.584,7.645c-1.228,2.545-2.549,5.188-3.777,7.734
		C75.391,422.161,72.938,426.88,71.71,428.482"/>
</g>
<g id="Layer_2">
</g>
</svg>
