<?xml version="1.0" encoding="utf-8"?>
<!-- Generator: Adobe Illustrator 15.1.0, SVG Export Plug-In . SVG Version: 6.00 Build 0)  -->
<!DOCTYPE svg PUBLIC "-//W3C//DTD SVG 1.1//EN" "http://www.w3.org/Graphics/SVG/1.1/DTD/svg11.dtd">
<svg version="1.1" id="Layer_1" xmlns="http://www.w3.org/2000/svg" xmlns:xlink="http://www.w3.org/1999/xlink" x="0px" y="0px"
	 viewBox="-0.147 45.555 595.295 750.599"
	 enable-background="new -0.147 45.555 595.295 750.599" xml:space="preserve">
<g>
	<path fill="#BA9C0A" d="M122.294,456.238c0,0,3.881,1.113,11.206,3.185c7.351,2.897,17.91,3.469,31.86,10.896
		c6.91,3.545,14.52,7.453,22.802,11.726c8.023,4.579,15.012,11.389,23.397,17.729c8.748,5.85,15.322,14.934,23.009,23.709
		c8.23,8.385,14.002,19.203,20.161,30.357c12.734,22.104,19.567,49.383,21.845,78.188c0.362,14.676-1.216,28.625-3.39,44.982
		c-3.908,13.897-7.532,28.186-16.436,42.729c-15.918,28.136-40.945,51.195-71.744,64.834c-31.006,13.148-66.568,14.935-99.18,6.109
		c-32.43-9.24-60.795-33.543-74.59-63.281C-3.079,698.284-4.088,661.3,9.318,634.175c13.691-28.754,40.375-48.941,69.027-53.316
		c28.211-4.918,57.275,2.898,74.59,21.248c17.315,17.988,23.449,41.955,20.499,61.496c-2.044,19.93-14.597,34.811-26.425,42.266
		c-12.035,8.203-23.915,8.748-31.344,9.603c-7.583-0.646-11.621-0.957-11.621-0.957s4.038,0.231,11.621,0.697
		c7.377-0.957,19.127-1.839,30.8-10.197c11.569-7.738,23.241-21.998,24.847-41.67c2.433-19.074-4.09-41.928-20.965-58.75
		c-16.745-17.006-44.49-23.813-70.967-18.531c-26.865,4.426-51.557,24.768-63.281,50.547C3.546,664.25,6.134,695.851,19.67,723.39
		c13.796,27.408,39.03,48.295,69.26,56.369c29.972,7.377,62.686,5.074,90.534-7.479c27.643-12.813,50.029-34.967,63.229-59.477
		c7.247-11.414,10.818-26.063,14.416-40.222c0.958-12.241,2.614-26.916,1.863-39.625c-2.743-26.036-9.292-50.442-21.274-70.034
		c-5.771-9.914-11.025-19.541-18.713-26.789c-7.039-7.687-12.941-15.734-20.938-20.756c-7.532-5.308-14.029-11.468-20.965-15.168
		c-6.937-3.441-13.303-6.601-19.101-9.421c-11.077-6.211-23.812-7.194-30.593-9.731c-7.376-1.914-11.284-2.949-11.284-2.949
		L122.294,456.238z"/>
	<path fill="#BA9C0A" d="M478.892,478.057c0,0-3.959,1.035-11.309,2.977c-6.756,2.537-19.49,3.494-30.566,9.705
		c-5.799,2.9-12.166,6.031-19.102,9.447c-6.936,3.676-13.432,9.861-20.965,15.193c-7.996,5.021-13.871,13.045-20.963,20.729
		c-7.662,7.273-12.941,16.9-18.689,26.787c-11.98,19.594-18.506,44.025-21.301,70.063c-0.725,12.709,0.932,27.357,1.891,39.625
		c3.57,14.158,7.168,28.781,14.391,40.195c13.227,24.562,35.613,46.639,63.256,59.449c27.848,12.604,60.563,14.908,90.533,7.506
		c30.18-8.023,55.438-28.986,69.26-56.344c13.537-27.59,16.125-59.166,3.547-86.834c-11.725-25.728-36.391-46.097-63.256-50.521
		c-26.477-5.254-54.273,1.527-70.967,18.56c-16.9,16.771-23.449,39.676-20.965,58.698c1.604,19.67,13.275,33.982,24.846,41.748
		c11.646,8.332,23.396,9.136,30.801,10.119c7.582-0.414,11.621-0.674,11.621-0.674s-4.039,0.311-11.621,0.959
		c-7.455-0.803-19.309-1.424-31.344-9.604c-11.828-7.429-24.406-22.31-26.426-42.238c-2.949-19.592,3.184-43.508,20.5-61.547
		c17.313-18.324,46.379-26.166,74.59-21.197c28.625,4.375,55.336,24.563,69.027,53.266c13.404,27.123,12.369,64.16-1.916,93.277
		c-13.797,29.686-42.16,54.066-74.564,63.281c-32.637,8.852-68.199,7.063-99.18-6.109c-30.824-13.639-55.854-36.674-71.795-64.781
		c-8.932-14.598-12.504-28.832-16.463-42.758c-2.121-16.33-3.699-30.281-3.34-45.008c2.279-28.779,9.086-56.111,21.848-78.162
		c6.156-11.182,11.902-22.025,20.162-30.359c7.686-8.825,14.209-17.858,23.008-23.733c8.387-6.289,15.348-13.148,23.395-17.729
		c8.283-4.271,15.895-8.178,22.803-11.75c13.898-7.428,24.484-7.944,31.859-10.846c7.299-2.121,11.207-3.234,11.207-3.234
		L478.892,478.057z"/>
	<path fill="#BA9C0A" d="M116.107,363.608c0,0,3.908-1.035,11.311-2.951c6.755-2.536,19.489-3.52,30.566-9.705
		c5.798-2.897,12.164-6.03,19.101-9.473c6.936-3.676,13.433-9.835,20.965-15.167c7.996-5.021,13.872-13.044,20.938-20.731
		c7.688-7.271,12.967-16.899,18.713-26.787c11.982-19.593,18.506-44.051,21.301-70.035c0.725-12.734-0.932-27.409-1.89-39.651
		c-3.571-14.183-7.169-28.78-14.39-40.194c-13.227-24.587-35.613-46.664-63.256-59.45c-27.849-12.63-60.563-14.906-90.534-7.506
		c-30.229,8.023-55.438,28.988-69.26,56.346c-13.536,27.563-16.124,59.166-3.546,86.808c11.725,25.752,36.391,46.121,63.256,50.547
		c26.477,5.254,54.273-1.526,70.967-18.557c16.875-16.771,23.449-39.677,20.965-58.7c-1.605-19.696-13.277-33.982-24.847-41.747
		c-11.647-8.334-23.423-9.188-30.8-10.12c-7.583,0.414-11.621,0.647-11.621,0.647s4.038-0.285,11.621-0.933
		c7.455,0.803,19.309,1.423,31.344,9.603c11.828,7.429,24.406,22.311,26.425,42.239c2.95,19.593-3.184,43.507-20.499,61.521
		c-17.314,18.324-46.379,26.192-74.59,21.224c-28.626-4.399-55.336-24.563-69.027-53.265c-13.406-27.124-12.371-64.135,1.916-93.252
		C25.03,84.602,53.396,60.248,85.8,51.034c32.637-8.852,68.199-7.092,99.18,6.108c30.824,13.64,55.852,36.674,71.795,64.808
		c8.878,14.571,12.502,28.807,16.461,42.705c2.123,16.383,3.701,30.308,3.339,45.034c-2.277,28.78-9.085,56.11-21.845,78.163
		c-6.159,11.207-11.904,22.024-20.161,30.358c-7.687,8.801-14.261,17.858-22.957,23.733c-8.438,6.289-15.399,13.146-23.449,17.729
		c-8.282,4.271-15.892,8.18-22.802,11.751c-13.898,7.429-24.51,7.945-31.86,10.845c-7.299,2.123-11.207,3.234-11.207,3.234
		L116.107,363.608z"/>
	<path fill="#BA9C0A" d="M472.707,385.452c0,0-3.881-1.112-11.207-3.209c-7.35-2.873-17.936-3.442-31.859-10.87
		c-6.91-3.546-14.52-7.479-22.828-11.751c-7.998-4.555-15.012-11.36-23.371-17.703c-8.748-5.849-15.322-14.934-23.008-23.707
		c-8.23-8.386-14.029-19.204-20.162-30.358c-12.734-22.104-19.566-49.408-21.846-78.189c-0.361-14.675,1.217-28.625,3.391-44.981
		c3.908-13.898,7.533-28.186,16.436-42.73c15.918-28.134,40.945-51.194,71.744-64.834c31.006-13.146,66.568-14.934,99.18-6.106
		c32.432,9.238,60.795,33.542,74.592,63.279c14.313,29.117,15.32,66.104,1.916,93.228c-13.691,28.754-40.375,48.941-69.027,53.315
		c-28.211,4.917-57.275-2.898-74.59-21.249c-17.289-18.014-23.449-41.954-20.5-61.495c2.02-19.929,14.598-34.812,26.426-42.265
		c12.035-8.205,23.916-8.748,31.344-9.603c7.582,0.646,11.621,0.958,11.621,0.958s-4.039-0.207-11.621-0.699
		c-7.377,0.958-19.152,1.838-30.801,10.197c-11.568,7.738-23.24,22-24.846,41.67c-2.436,19.074,4.09,41.929,20.938,58.752
		c16.771,17.004,44.518,23.811,71.021,18.53c26.838-4.426,51.527-24.77,63.229-50.548c12.578-27.667,9.99-59.243-3.547-86.78
		c-13.795-27.408-39.055-48.296-69.26-56.37c-29.973-7.376-62.688-5.073-90.561,7.479c-27.615,12.838-50.004,34.967-63.201,59.45
		c-7.248,11.44-10.82,26.089-14.416,40.246c-0.959,12.242-2.615,26.917-1.865,39.625c2.744,26.037,9.293,50.444,21.273,70.011
		c5.771,9.938,11.025,19.566,18.715,26.813c7.037,7.661,12.99,15.735,20.938,20.757c7.533,5.279,14.029,11.466,20.965,15.167
		c6.936,3.441,13.303,6.6,19.102,9.421c11.076,6.212,23.811,7.195,30.592,9.73c7.375,1.915,11.283,2.95,11.283,2.95L472.707,385.452
		z"/>
</g>
</svg>
