<?xml version="1.0" encoding="utf-8"?>
<!-- Generator: Adobe Illustrator 15.1.0, SVG Export Plug-In . SVG Version: 6.00 Build 0)  -->
<!DOCTYPE svg PUBLIC "-//W3C//DTD SVG 1.1//EN" "http://www.w3.org/Graphics/SVG/1.1/DTD/svg11.dtd">
<svg version="1.1" id="Layer_1" xmlns="http://www.w3.org/2000/svg" xmlns:xlink="http://www.w3.org/1999/xlink" x="0px" y="0px"
	 viewBox="0 0 595.293 750.6" enable-background="new 0 0 595.293 750.6" xml:space="preserve">
<g opacity="0.3">
	<path fill="#FFFFFF" d="M122.44,410.684c0,0,3.881,1.113,11.206,3.184c7.351,2.898,17.91,3.469,31.86,10.896
		c6.91,3.545,14.52,7.453,22.802,11.725c8.023,4.58,15.012,11.389,23.397,17.729c8.748,5.85,15.322,14.934,23.009,23.709
		c8.23,8.385,14.002,19.203,20.161,30.357c12.734,22.104,19.567,49.383,21.845,78.189c0.362,14.676-1.216,28.625-3.39,44.982
		c-3.908,13.898-7.532,28.186-16.436,42.73c-15.918,28.135-40.945,51.195-71.744,64.834c-31.006,13.148-66.568,14.934-99.18,6.109
		c-32.43-9.24-60.795-33.543-74.59-63.281C-2.932,652.73-3.94,615.746,9.466,588.621c13.691-28.754,40.375-48.941,69.027-53.316
		c28.211-4.918,57.275,2.898,74.59,21.248c17.315,17.988,23.449,41.955,20.499,61.496c-2.044,19.93-14.597,34.811-26.425,42.266
		c-12.035,8.203-23.915,8.748-31.344,9.602c-7.583-0.646-11.621-0.957-11.621-0.957s4.038,0.232,11.621,0.697
		c7.377-0.957,19.127-1.838,30.8-10.197c11.569-7.738,23.241-21.998,24.847-41.67c2.433-19.074-4.09-41.928-20.965-58.75
		c-16.745-17.006-44.49-23.813-70.967-18.531c-26.865,4.426-51.557,24.768-63.281,50.547c-12.553,27.641-9.965,59.242,3.571,86.781
		c13.796,27.408,39.03,48.295,69.26,56.369c29.972,7.377,62.686,5.074,90.534-7.479c27.643-12.813,50.029-34.967,63.229-59.477
		c7.247-11.414,10.818-26.063,14.416-40.221c0.958-12.242,2.614-26.916,1.863-39.625c-2.743-26.037-9.292-50.443-21.274-70.035
		c-5.771-9.914-11.025-19.541-18.713-26.789c-7.039-7.686-12.941-15.734-20.938-20.756c-7.532-5.307-14.029-11.467-20.965-15.168
		c-6.937-3.441-13.303-6.6-19.101-9.42c-11.077-6.211-23.812-7.195-30.593-9.732c-7.376-1.914-11.284-2.949-11.284-2.949
		L122.44,410.684z"/>
	<path fill="#FFFFFF" d="M479.038,432.502c0,0-3.959,1.035-11.309,2.977c-6.756,2.537-19.49,3.494-30.566,9.705
		c-5.799,2.9-12.166,6.031-19.102,9.447c-6.936,3.676-13.432,9.861-20.965,15.193c-7.996,5.021-13.871,13.045-20.963,20.73
		c-7.662,7.273-12.941,16.9-18.688,26.787c-11.982,19.594-18.506,44.025-21.301,70.063c-0.725,12.709,0.932,27.357,1.891,39.625
		c3.57,14.158,7.168,28.781,14.389,40.195c13.227,24.561,35.613,46.639,63.256,59.449c27.848,12.605,60.563,14.908,90.533,7.506
		c30.18-8.023,55.439-28.986,69.26-56.344c13.537-27.59,16.125-59.166,3.547-86.834c-11.725-25.727-36.391-46.096-63.256-50.521
		c-26.477-5.254-54.273,1.527-70.967,18.559c-16.9,16.771-23.449,39.676-20.965,58.699c1.605,19.67,13.277,33.982,24.846,41.748
		c11.648,8.332,23.398,9.135,30.801,10.119c7.582-0.414,11.621-0.674,11.621-0.674s-4.039,0.311-11.621,0.959
		c-7.455-0.803-19.309-1.424-31.344-9.604c-11.828-7.428-24.406-22.309-26.426-42.238c-2.949-19.592,3.184-43.508,20.5-61.547
		c17.314-18.324,46.379-26.166,74.59-21.197c28.625,4.375,55.336,24.563,69.027,53.266c13.406,27.123,12.371,64.16-1.916,93.277
		c-13.795,29.686-42.16,54.066-74.564,63.281c-32.637,8.852-68.199,7.064-99.18-6.109c-30.824-13.639-55.852-36.674-71.795-64.781
		c-8.93-14.598-12.502-28.832-16.461-42.758c-2.123-16.33-3.701-30.281-3.34-45.008c2.279-28.779,9.086-56.111,21.846-78.162
		c6.158-11.182,11.904-22.025,20.162-30.359c7.686-8.826,14.209-17.859,23.008-23.734c8.387-6.289,15.348-13.148,23.396-17.729
		c8.283-4.271,15.893-8.178,22.803-11.75c13.898-7.428,24.484-7.945,31.859-10.846c7.299-2.121,11.207-3.234,11.207-3.234
		L479.038,432.502z"/>
	<path fill="#FFFFFF" d="M116.254,318.053c0,0,3.908-1.035,11.311-2.951c6.755-2.536,19.489-3.52,30.566-9.705
		c5.798-2.898,12.164-6.03,19.101-9.473c6.936-3.676,13.433-9.835,20.965-15.167c7.996-5.021,13.872-13.044,20.938-20.731
		c7.688-7.272,12.967-16.9,18.713-26.787c11.982-19.593,18.506-44.051,21.301-70.036c0.725-12.734-0.932-27.409-1.89-39.651
		c-3.571-14.183-7.169-28.78-14.39-40.194c-13.227-24.587-35.613-46.664-63.256-59.45C151.764,11.277,119.05,9,89.078,16.401
		c-30.229,8.023-55.438,28.988-69.26,56.345c-13.536,27.564-16.124,59.166-3.546,86.808c11.725,25.752,36.391,46.121,63.256,50.547
		c26.477,5.254,54.273-1.526,70.967-18.557c16.875-16.771,23.449-39.677,20.965-58.7c-1.605-19.696-13.277-33.982-24.847-41.747
		c-11.647-8.334-23.423-9.188-30.8-10.12c-7.583,0.414-11.621,0.647-11.621,0.647s4.038-0.285,11.621-0.932
		c7.455,0.802,19.309,1.423,31.344,9.602c11.828,7.429,24.406,22.311,26.425,42.239c2.95,19.593-3.184,43.507-20.499,61.521
		c-17.314,18.324-46.379,26.192-74.59,21.224c-28.626-4.4-55.336-24.563-69.027-53.265C-3.94,134.888-2.905,97.877,11.382,68.76
		c13.795-29.713,42.16-54.067,74.564-63.281c32.637-8.852,68.199-7.092,99.18,6.108c30.824,13.64,55.852,36.674,71.795,64.808
		c8.878,14.571,12.502,28.807,16.461,42.705c2.123,16.383,3.701,30.308,3.339,45.034c-2.277,28.78-9.085,56.111-21.845,78.163
		c-6.159,11.207-11.904,22.025-20.161,30.359c-7.687,8.8-14.261,17.858-22.957,23.733c-8.438,6.289-15.399,13.147-23.449,17.729
		c-8.282,4.271-15.892,8.179-22.802,11.751c-13.898,7.428-24.51,7.945-31.86,10.844c-7.299,2.123-11.207,3.235-11.207,3.235
		L116.254,318.053z"/>
	<path fill="#FFFFFF" d="M472.853,339.897c0,0-3.881-1.112-11.207-3.209c-7.35-2.873-17.936-3.442-31.859-10.87
		c-6.91-3.546-14.52-7.48-22.828-11.751c-7.998-4.555-15.012-11.361-23.371-17.703c-8.748-5.849-15.322-14.934-23.008-23.707
		c-8.23-8.386-14.029-19.204-20.162-30.359c-12.734-22.104-19.566-49.408-21.846-78.189c-0.361-14.675,1.217-28.625,3.391-44.982
		c3.908-13.898,7.533-28.185,16.436-42.73c15.918-28.134,40.945-51.194,71.744-64.834c31.006-13.147,66.568-14.934,99.18-6.107
		c32.43,9.239,60.795,33.542,74.59,63.28c14.313,29.117,15.322,66.103,1.916,93.227c-13.691,28.754-40.375,48.942-69.027,53.316
		c-28.211,4.917-57.275-2.899-74.59-21.249c-17.289-18.014-23.449-41.954-20.5-61.495c2.02-19.929,14.598-34.812,26.426-42.265
		c12.035-8.205,23.916-8.748,31.344-9.603c7.582,0.647,11.621,0.958,11.621,0.958s-4.039-0.207-11.621-0.699
		c-7.377,0.958-19.152,1.838-30.801,10.197c-11.568,7.739-23.24,22-24.846,41.67c-2.434,19.075,4.09,41.929,20.939,58.752
		c16.77,17.004,44.516,23.811,71.02,18.531c26.838-4.426,51.529-24.77,63.229-50.548c12.578-27.667,9.99-59.243-3.547-86.781
		c-13.795-27.408-39.055-48.295-69.26-56.37c-29.971-7.376-62.686-5.073-90.559,7.479c-27.617,12.838-50.004,34.967-63.203,59.45
		c-7.248,11.44-10.82,26.089-14.416,40.246c-0.959,12.242-2.615,26.917-1.865,39.625c2.744,26.037,9.293,50.444,21.275,70.011
		c5.771,9.938,11.025,19.566,18.713,26.813c7.039,7.661,12.992,15.736,20.938,20.757c7.533,5.28,14.029,11.466,20.965,15.167
		c6.936,3.442,13.303,6.6,19.102,9.421c11.076,6.212,23.811,7.195,30.592,9.731c7.375,1.915,11.283,2.95,11.283,2.95
		L472.853,339.897z"/>
</g>
</svg>
